<svg width="1554" height="209" viewBox="0 0 1554 209" fill="none" xmlns="http://www.w3.org/2000/svg">
<path fill-rule="evenodd" clip-rule="evenodd" d="M115.369 0C51.6523 0.000856527 0 31.7216 0 70.8511C0 109.981 51.6523 141.701 115.369 141.702V0Z" fill="#9DCBF2"/>
<path fill-rule="evenodd" clip-rule="evenodd" d="M115.365 209C115.372 209 115.38 209 115.387 209C169.031 209 212.518 178.649 212.518 141.21C212.518 103.77 169.031 73.4194 115.387 73.4194C115.38 73.4194 115.372 73.4194 115.365 73.4194L115.365 209Z" fill="#3E7BB0"/>
<path d="M208.27 49.1053C208.272 134.816 206.392 177.434 268.985 177.434L268.985 110.356C268.985 61.9104 208.27 47.242 208.27 49.1053Z" fill="#FEC400"/>
<path d="M347.921 30.7726C347.919 128.728 350.363 177.434 268.992 177.434L268.992 100.773C268.992 45.407 347.921 28.6431 347.921 30.7726Z" fill="#89C5CC"/>
<path d="M1069.35 83.7441V22.04H1112.37V34.8216H1083.9V70.9625H1113.25V83.7441H1069.35ZM1076.41 58.4454V46.2809H1108.4V58.4454H1076.41Z" fill="#576680"/>
<path d="M1025.12 84.6233C1021.07 84.6233 1017.39 84.1532 1014.1 83.2129C1010.87 82.2139 1007.99 80.8036 1005.46 78.9818C1002.94 77.1013 1000.67 74.8976 998.675 72.3707L1007.75 62.0573C1010.69 65.9946 1013.63 68.639 1016.57 69.9907C1019.57 71.3423 1022.65 72.0181 1025.83 72.0181C1027.41 72.0181 1028.85 71.8124 1030.14 71.401C1031.44 70.9897 1032.44 70.402 1033.14 69.6381C1033.85 68.8153 1034.2 67.8163 1034.2 66.641C1034.2 65.7595 1033.96 64.9662 1033.49 64.261C1033.08 63.5558 1032.49 62.9388 1031.73 62.4099C1030.97 61.881 1030.06 61.4109 1029 60.9995C1027.94 60.5294 1026.82 60.1474 1025.65 59.8536C1024.47 59.501 1023.27 59.2071 1022.03 58.9721C1018.63 58.2081 1015.66 57.2679 1013.13 56.1513C1010.6 55.0348 1008.49 53.6832 1006.79 52.0965C1005.14 50.451 1003.91 48.5999 1003.08 46.5431C1002.26 44.4276 1001.85 42.0769 1001.85 39.4912C1001.85 36.7292 1002.47 34.2023 1003.7 31.9105C1004.99 29.5598 1006.7 27.5618 1008.81 25.9164C1010.99 24.2121 1013.48 22.9193 1016.31 22.0378C1019.13 21.0976 1022.06 20.6274 1025.12 20.6274C1029.17 20.6274 1032.64 21.0682 1035.52 21.9497C1038.46 22.7724 1040.96 23.9771 1043.01 25.5638C1045.13 27.1504 1046.92 29.0603 1048.39 31.2934L1039.14 40.1964C1037.9 38.6685 1036.55 37.4051 1035.08 36.406C1033.67 35.407 1032.14 34.6431 1030.5 34.1142C1028.91 33.5853 1027.26 33.3208 1025.56 33.3208C1023.8 33.3208 1022.27 33.5559 1020.98 34.026C1019.74 34.4374 1018.77 35.0544 1018.07 35.8771C1017.36 36.6411 1017.01 37.5814 1017.01 38.6979C1017.01 39.6969 1017.3 40.549 1017.89 41.2542C1018.48 41.9594 1019.27 42.6058 1020.27 43.1935C1021.27 43.7224 1022.42 44.1925 1023.71 44.6039C1025 44.9565 1026.35 45.2503 1027.76 45.4853C1031 46.1318 1033.91 46.9839 1036.49 48.0417C1039.14 49.0994 1041.4 50.3923 1043.28 51.9202C1045.22 53.4481 1046.69 55.2698 1047.69 57.3854C1048.74 59.4422 1049.27 61.8516 1049.27 64.6136C1049.27 68.9035 1048.21 72.547 1046.1 75.544C1044.04 78.4823 1041.19 80.7448 1037.55 82.3315C1033.96 83.8594 1029.82 84.6233 1025.12 84.6233Z" fill="#576680"/>
<path d="M976.742 84.711C974.333 84.711 972.452 84.0352 971.1 82.6836C969.808 81.3319 969.161 79.3927 969.161 76.8658C969.161 74.5151 969.866 72.6052 971.277 71.1361C972.687 69.6669 974.509 68.9324 976.742 68.9324C979.151 68.9324 981.032 69.6376 982.383 71.0479C983.735 72.3996 984.411 74.3388 984.411 76.8658C984.411 79.1576 983.706 81.0381 982.295 82.5073C980.885 83.9764 979.034 84.711 976.742 84.711Z" fill="#576680"/>
<path d="M887.005 83.7441V22.04H900.403L922.881 58.6217L913.273 58.5336L936.016 22.04H948.885V83.7441H934.341V64.5277C934.341 59.2388 934.458 54.4787 934.693 50.2476C934.987 46.0165 935.457 41.8147 936.104 37.6423L937.778 42.2261L920.678 68.7588H914.86L898.112 42.4024L899.786 37.6423C900.433 41.5796 900.874 45.6345 901.109 49.8069C901.402 53.9205 901.549 58.8274 901.549 64.5277V83.7441H887.005Z" fill="#576680"/>
<path d="M809.146 83.7441L833.563 22.04H846.256L870.497 83.7441H855.335L843.7 52.4513C843.23 51.2172 842.759 49.895 842.289 48.4846C841.819 47.0742 841.349 45.6345 840.879 44.1653C840.409 42.6374 839.939 41.1683 839.469 39.7579C839.057 38.2888 838.705 36.9372 838.411 35.7031L841.055 35.6149C840.703 37.0841 840.291 38.5238 839.821 39.9342C839.41 41.3446 838.969 42.755 838.499 44.1653C838.088 45.517 837.617 46.8979 837.089 48.3083C836.56 49.6599 836.06 51.0703 835.59 52.5395L823.954 83.7441H809.146ZM820.781 71.9322L825.453 60.6491H853.837L858.421 71.9322H820.781Z" fill="#576680"/>
<path d="M772.759 84.6233C768.704 84.6233 765.031 84.1532 761.74 83.2129C758.508 82.2139 755.629 80.8036 753.102 78.9818C750.575 77.1013 748.312 74.8976 746.314 72.3707L755.394 62.0573C758.332 65.9946 761.27 68.639 764.209 69.9907C767.206 71.3423 770.291 72.0181 773.464 72.0181C775.051 72.0181 776.491 71.8124 777.783 71.401C779.076 70.9897 780.075 70.402 780.781 69.6381C781.486 68.8153 781.838 67.8163 781.838 66.641C781.838 65.7595 781.603 64.9662 781.133 64.261C780.722 63.5558 780.134 62.9388 779.37 62.4099C778.606 61.881 777.695 61.4109 776.638 60.9995C775.58 60.5294 774.463 60.1474 773.288 59.8536C772.113 59.501 770.908 59.2071 769.674 58.9721C766.265 58.2081 763.298 57.2679 760.771 56.1513C758.244 55.0348 756.128 53.6832 754.424 52.0965C752.779 50.451 751.545 48.5999 750.722 46.5431C749.899 44.4276 749.488 42.0769 749.488 39.4912C749.488 36.7292 750.105 34.2023 751.339 31.9105C752.632 29.5598 754.336 27.5618 756.452 25.9164C758.626 24.2121 761.123 22.9193 763.944 22.0378C766.765 21.0976 769.703 20.6274 772.759 20.6274C776.814 20.6274 780.281 21.0682 783.161 21.9497C786.099 22.7724 788.596 23.9771 790.653 25.5638C792.769 27.1504 794.561 29.0603 796.03 31.2934L786.775 40.1964C785.541 38.6685 784.189 37.4051 782.72 36.406C781.309 35.407 779.782 34.6431 778.136 34.1142C776.549 33.5853 774.904 33.3208 773.2 33.3208C771.437 33.3208 769.909 33.5559 768.616 34.026C767.382 34.4374 766.412 35.0544 765.707 35.8771C765.002 36.6411 764.649 37.5814 764.649 38.6979C764.649 39.6969 764.943 40.549 765.531 41.2542C766.119 41.9594 766.912 42.6058 767.911 43.1935C768.91 43.7224 770.056 44.1925 771.349 44.6039C772.642 44.9565 773.993 45.2503 775.403 45.4853C778.636 46.1318 781.545 46.9839 784.13 48.0417C786.775 49.0994 789.037 50.3923 790.918 51.9202C792.857 53.4481 794.326 55.2698 795.325 57.3854C796.383 59.4422 796.912 61.8516 796.912 64.6136C796.912 68.9035 795.854 72.547 793.738 75.544C791.682 78.4823 788.831 80.7448 785.188 82.3315C781.603 83.8594 777.46 84.6233 772.759 84.6233Z" fill="#576680"/>
<path d="M675.4 83.7441V22.04H701.227C705.752 22.04 709.895 22.804 713.656 24.3319C717.417 25.801 720.65 27.9166 723.353 30.6786C726.115 33.4406 728.23 36.7021 729.699 40.4631C731.169 44.2241 731.903 48.3671 731.903 52.8921C731.903 57.417 731.169 61.5894 729.699 65.4092C728.23 69.1702 726.115 72.4317 723.353 75.1936C720.65 77.8969 717.417 80.0124 713.656 81.5404C709.895 83.0095 705.752 83.7441 701.227 83.7441H675.4ZM690.385 73.5188L688.358 70.5218H700.787C703.255 70.5218 705.459 70.1104 707.398 69.2877C709.337 68.4062 710.983 67.2015 712.334 65.6736C713.745 64.1457 714.832 62.2946 715.596 60.1202C716.36 57.9459 716.742 55.5365 716.742 52.8921C716.742 50.2476 716.36 47.8382 715.596 45.6639C714.832 43.4895 713.745 41.6384 712.334 40.1105C710.983 38.5826 709.337 37.4073 707.398 36.5846C705.459 35.7031 703.255 35.2623 700.787 35.2623H688.093L690.385 32.4416V73.5188Z" fill="#576680"/>
<path d="M595.483 83.7441V22.04H608.882L641.233 66.1143L638.324 65.6736C638.03 63.7343 637.795 61.8832 637.618 60.1202C637.442 58.3573 637.266 56.6237 637.09 54.9195C636.972 53.2153 636.854 51.4817 636.737 49.7187C636.678 47.9557 636.619 46.0458 636.561 43.989C636.561 41.9322 636.561 39.6991 636.561 37.2898V22.04H651.105V83.7441H637.53L603.769 38.2594L608.265 38.8764C608.559 41.6972 608.794 44.1066 608.97 46.1046C609.205 48.0439 609.381 49.7775 609.499 51.3054C609.675 52.8333 609.793 54.2143 609.852 55.4484C609.91 56.6824 609.94 57.9165 609.94 59.1506C609.999 60.3259 610.028 61.6481 610.028 63.1173V83.7441H595.483Z" fill="#576680"/>
<path d="M541.846 83.7441V52.9802L542.463 57.2995L517.517 22.04H534.529L553.569 49.3661L545.812 49.1017L563.001 22.04H579.485L555.597 58.2691L556.919 52.275V83.7441H541.846Z" fill="#576680"/>
<path d="M439.689 83.7441V22.04H453.088L475.566 58.6217L465.958 58.5336L488.7 22.04H501.57V83.7441H487.025V64.5277C487.025 59.2388 487.143 54.4787 487.378 50.2476C487.672 46.0165 488.142 41.8147 488.788 37.6423L490.463 42.2261L473.362 68.7588H467.544L450.796 42.4024L452.471 37.6423C453.117 41.5796 453.558 45.6345 453.793 49.8069C454.087 53.9205 454.234 58.8274 454.234 64.5277V83.7441H439.689Z" fill="#576680"/>
<path d="M1532.55 207.763C1529.59 207.763 1526.63 207.287 1523.67 206.335C1520.76 205.436 1518.41 204.246 1516.61 202.765L1519.62 196.418C1520.68 197.211 1521.92 197.899 1523.35 198.481C1524.78 199.115 1526.29 199.591 1527.87 199.909C1529.46 200.279 1531.02 200.464 1532.55 200.464C1535.46 200.464 1537.9 199.988 1539.85 199.036C1541.81 198.084 1543.29 196.682 1544.3 194.831C1545.3 192.98 1545.8 190.679 1545.8 187.929V179.917L1546.68 180.472C1546.41 182.111 1545.54 183.698 1544.06 185.232C1542.63 186.713 1540.83 187.929 1538.66 188.881C1536.49 189.833 1534.27 190.309 1532 190.309C1528.03 190.309 1524.49 189.384 1521.37 187.533C1518.3 185.629 1515.87 183.063 1514.07 179.837C1512.27 176.558 1511.37 172.829 1511.37 168.651C1511.37 164.473 1512.24 160.771 1513.99 157.544C1515.79 154.265 1518.22 151.7 1521.29 149.849C1524.41 147.945 1527.9 146.993 1531.76 146.993C1533.35 146.993 1534.88 147.205 1536.36 147.628C1537.84 147.998 1539.22 148.553 1540.49 149.294C1541.76 149.981 1542.89 150.748 1543.9 151.594C1544.9 152.441 1545.72 153.34 1546.36 154.292C1546.99 155.244 1547.39 156.143 1547.55 156.989L1545.8 157.624V147.866H1553.97V186.977C1553.97 190.309 1553.47 193.245 1552.47 195.783C1551.51 198.375 1550.11 200.543 1548.26 202.289C1546.41 204.087 1544.16 205.436 1541.52 206.335C1538.87 207.287 1535.89 207.763 1532.55 207.763ZM1532.87 182.773C1535.46 182.773 1537.76 182.164 1539.77 180.948C1541.78 179.731 1543.34 178.065 1544.45 175.95C1545.56 173.834 1546.12 171.401 1546.12 168.651C1546.12 165.901 1545.54 163.468 1544.37 161.352C1543.26 159.184 1541.7 157.492 1539.69 156.275C1537.74 155.059 1535.46 154.45 1532.87 154.45C1530.33 154.45 1528.06 155.085 1526.05 156.354C1524.09 157.571 1522.53 159.263 1521.37 161.432C1520.26 163.547 1519.7 165.954 1519.7 168.651C1519.7 171.349 1520.26 173.781 1521.37 175.95C1522.53 178.065 1524.09 179.731 1526.05 180.948C1528.06 182.164 1530.33 182.773 1532.87 182.773Z" fill="#576680"/>
<path d="M1493.18 189.515V147.865H1501.35V189.515H1493.18ZM1497.14 138.662C1495.4 138.662 1494.05 138.212 1493.1 137.313C1492.15 136.414 1491.67 135.145 1491.67 133.505C1491.67 131.972 1492.15 130.729 1493.1 129.777C1494.1 128.825 1495.45 128.349 1497.14 128.349C1498.89 128.349 1500.24 128.798 1501.19 129.697C1502.14 130.596 1502.62 131.866 1502.62 133.505C1502.62 135.039 1502.12 136.282 1501.11 137.234C1500.16 138.186 1498.84 138.662 1497.14 138.662Z" fill="#576680"/>
<path d="M1458.92 190.31C1455.11 190.31 1451.7 189.385 1448.69 187.534C1445.72 185.63 1443.37 183.064 1441.63 179.838C1439.88 176.559 1439.01 172.83 1439.01 168.652C1439.01 164.474 1439.85 160.772 1441.55 157.545C1443.29 154.266 1445.64 151.701 1448.61 149.85C1451.57 147.946 1454.93 146.994 1458.68 146.994C1460.74 146.994 1462.73 147.338 1464.63 148.025C1466.59 148.66 1468.33 149.559 1469.87 150.723C1471.4 151.833 1472.59 153.076 1473.44 154.451C1474.34 155.774 1474.79 157.122 1474.79 158.497L1472.41 158.656V130.81H1480.58V189.517H1472.41V179.6H1473.99C1473.99 180.87 1473.57 182.139 1472.72 183.408C1471.88 184.625 1470.74 185.762 1469.31 186.82C1467.94 187.877 1466.32 188.724 1464.47 189.358C1462.68 189.993 1460.82 190.31 1458.92 190.31ZM1460.03 183.25C1462.52 183.25 1464.71 182.615 1466.62 181.346C1468.52 180.076 1470 178.357 1471.06 176.189C1472.17 173.967 1472.72 171.455 1472.72 168.652C1472.72 165.849 1472.17 163.363 1471.06 161.195C1470 158.973 1468.52 157.228 1466.62 155.959C1464.71 154.689 1462.52 154.055 1460.03 154.055C1457.54 154.055 1455.35 154.689 1453.45 155.959C1451.54 157.228 1450.03 158.973 1448.92 161.195C1447.87 163.363 1447.34 165.849 1447.34 168.652C1447.34 171.455 1447.87 173.967 1448.92 176.189C1450.03 178.357 1451.54 180.076 1453.45 181.346C1455.35 182.615 1457.54 183.25 1460.03 183.25Z" fill="#576680"/>
<path d="M1387.31 189.516V147.866H1395.56V160.956L1394.77 157.782C1395.35 155.773 1396.33 153.948 1397.7 152.308C1399.13 150.669 1400.74 149.373 1402.54 148.421C1404.39 147.469 1406.3 146.993 1408.25 146.993C1409.15 146.993 1410 147.072 1410.79 147.231C1411.64 147.39 1412.3 147.575 1412.78 147.786L1410.63 156.672C1410 156.407 1409.29 156.196 1408.49 156.037C1407.75 155.826 1407.01 155.72 1406.27 155.72C1404.84 155.72 1403.47 156.011 1402.15 156.592C1400.88 157.121 1399.74 157.888 1398.73 158.893C1397.78 159.845 1397.02 160.982 1396.43 162.304C1395.85 163.574 1395.56 164.975 1395.56 166.509V189.516H1387.31Z" fill="#576680"/>
<path d="M1357.23 190.31C1353.16 190.31 1349.51 189.384 1346.28 187.533C1343.11 185.629 1340.6 183.064 1338.74 179.838C1336.89 176.559 1335.97 172.83 1335.97 168.652C1335.97 164.473 1336.89 160.771 1338.74 157.545C1340.6 154.266 1343.11 151.701 1346.28 149.85C1349.51 147.946 1353.16 146.994 1357.23 146.994C1361.25 146.994 1364.85 147.946 1368.02 149.85C1371.25 151.701 1373.78 154.266 1375.64 157.545C1377.49 160.771 1378.41 164.473 1378.41 168.652C1378.41 172.83 1377.49 176.559 1375.64 179.838C1373.78 183.064 1371.25 185.629 1368.02 187.533C1364.85 189.384 1361.25 190.31 1357.23 190.31ZM1357.23 182.852C1359.72 182.852 1361.94 182.244 1363.89 181.028C1365.85 179.758 1367.38 178.066 1368.5 175.95C1369.61 173.782 1370.13 171.349 1370.08 168.652C1370.13 165.901 1369.61 163.468 1368.5 161.353C1367.38 159.184 1365.85 157.492 1363.89 156.276C1361.94 155.059 1359.72 154.451 1357.23 154.451C1354.74 154.451 1352.5 155.086 1350.49 156.355C1348.53 157.571 1347 159.264 1345.88 161.432C1344.77 163.548 1344.25 165.954 1344.3 168.652C1344.25 171.349 1344.77 173.782 1345.88 175.95C1347 178.066 1348.53 179.758 1350.49 181.028C1352.5 182.244 1354.74 182.852 1357.23 182.852ZM1365.16 138.584C1363.42 138.584 1362.07 138.135 1361.12 137.235C1360.17 136.336 1359.69 135.067 1359.69 133.427C1359.69 131.894 1360.17 130.651 1361.12 129.699C1362.12 128.747 1363.47 128.271 1365.16 128.271C1366.91 128.271 1368.26 128.72 1369.21 129.619C1370.16 130.519 1370.64 131.788 1370.64 133.427C1370.64 134.961 1370.13 136.204 1369.13 137.156C1368.18 138.108 1366.86 138.584 1365.16 138.584ZM1349.3 138.584C1347.55 138.584 1346.2 138.135 1345.25 137.235C1344.3 136.336 1343.82 135.067 1343.82 133.427C1343.82 131.894 1344.3 130.651 1345.25 129.699C1346.26 128.747 1347.6 128.271 1349.3 128.271C1351.04 128.271 1352.39 128.72 1353.34 129.619C1354.29 130.519 1354.77 131.788 1354.77 133.427C1354.77 134.961 1354.27 136.204 1353.26 137.156C1352.31 138.108 1350.99 138.584 1349.3 138.584Z" fill="#576680"/>
<path d="M1313.44 189.515V143.185C1313.44 140.805 1313.96 138.689 1315.02 136.838C1316.08 134.987 1317.53 133.532 1319.39 132.474C1321.24 131.417 1323.38 130.888 1325.81 130.888C1327.5 130.888 1329.09 131.205 1330.57 131.84C1332.05 132.474 1333.24 133.321 1334.14 134.378L1331.36 140.646C1330.68 140.011 1329.91 139.509 1329.06 139.139C1328.27 138.715 1327.5 138.504 1326.76 138.504C1325.65 138.504 1324.7 138.689 1323.91 139.059C1323.17 139.377 1322.61 139.905 1322.24 140.646C1321.87 141.333 1321.69 142.18 1321.69 143.185V189.515H1317.56C1316.87 189.515 1316.19 189.515 1315.5 189.515C1314.81 189.515 1314.12 189.515 1313.44 189.515ZM1306.77 156.116V148.579H1331.52V156.116H1306.77Z" fill="#576680"/>
<path d="M1259.63 190.311C1255.35 190.311 1251.54 189.412 1248.21 187.613C1244.93 185.762 1242.34 183.25 1240.43 180.077C1238.58 176.903 1237.66 173.254 1237.66 169.129C1237.66 165.849 1238.18 162.861 1239.24 160.164C1240.3 157.467 1241.75 155.139 1243.61 153.183C1245.51 151.173 1247.76 149.639 1250.35 148.581C1252.99 147.47 1255.85 146.915 1258.92 146.915C1261.61 146.915 1264.13 147.444 1266.45 148.502C1268.78 149.507 1270.79 150.908 1272.48 152.707C1274.23 154.505 1275.55 156.647 1276.45 159.133C1277.4 161.565 1277.85 164.236 1277.8 167.145L1277.72 170.636H1243.69L1241.86 164.131H1270.66L1269.47 165.479V163.575C1269.31 161.83 1268.73 160.27 1267.72 158.895C1266.72 157.519 1265.45 156.435 1263.92 155.642C1262.38 154.849 1260.72 154.452 1258.92 154.452C1256.06 154.452 1253.65 155.007 1251.7 156.118C1249.74 157.176 1248.26 158.762 1247.26 160.878C1246.25 162.941 1245.75 165.506 1245.75 168.573C1245.75 171.482 1246.36 174.021 1247.57 176.189C1248.79 178.305 1250.51 179.944 1252.73 181.108C1254.95 182.272 1257.52 182.853 1260.42 182.853C1262.49 182.853 1264.39 182.51 1266.14 181.822C1267.93 181.134 1269.87 179.892 1271.93 178.093L1276.05 183.885C1274.78 185.154 1273.22 186.265 1271.37 187.217C1269.57 188.169 1267.64 188.936 1265.58 189.517C1263.57 190.046 1261.59 190.311 1259.63 190.311Z" fill="#576680"/>
<path d="M1207.31 207.763C1204.35 207.763 1201.39 207.287 1198.43 206.335C1195.52 205.436 1193.17 204.246 1191.37 202.765L1194.38 196.418C1195.44 197.211 1196.68 197.899 1198.11 198.481C1199.54 199.115 1201.05 199.591 1202.63 199.909C1204.22 200.279 1205.78 200.464 1207.31 200.464C1210.22 200.464 1212.65 199.988 1214.61 199.036C1216.57 198.084 1218.05 196.682 1219.05 194.831C1220.06 192.98 1220.56 190.679 1220.56 187.929V179.917L1221.43 180.472C1221.17 182.111 1220.3 183.698 1218.82 185.232C1217.39 186.713 1215.59 187.929 1213.42 188.881C1211.25 189.833 1209.03 190.309 1206.76 190.309C1202.79 190.309 1199.25 189.384 1196.13 187.533C1193.06 185.629 1190.63 183.063 1188.83 179.837C1187.03 176.558 1186.13 172.829 1186.13 168.651C1186.13 164.473 1187 160.771 1188.75 157.544C1190.55 154.265 1192.98 151.7 1196.05 149.849C1199.17 147.945 1202.66 146.993 1206.52 146.993C1208.11 146.993 1209.64 147.205 1211.12 147.628C1212.6 147.998 1213.98 148.553 1215.25 149.294C1216.52 149.981 1217.65 150.748 1218.66 151.594C1219.66 152.441 1220.48 153.34 1221.12 154.292C1221.75 155.244 1222.15 156.143 1222.31 156.989L1220.56 157.624V147.866H1228.73V186.977C1228.73 190.309 1228.23 193.245 1227.23 195.783C1226.27 198.375 1224.87 200.543 1223.02 202.289C1221.17 204.087 1218.92 205.436 1216.28 206.335C1213.63 207.287 1210.64 207.763 1207.31 207.763ZM1207.63 182.773C1210.22 182.773 1212.52 182.164 1214.53 180.948C1216.54 179.731 1218.1 178.065 1219.21 175.95C1220.32 173.834 1220.88 171.401 1220.88 168.651C1220.88 165.901 1220.3 163.468 1219.13 161.352C1218.02 159.184 1216.46 157.492 1214.45 156.275C1212.5 155.059 1210.22 154.45 1207.63 154.45C1205.09 154.45 1202.82 155.085 1200.81 156.354C1198.85 157.571 1197.29 159.263 1196.13 161.432C1195.02 163.547 1194.46 165.954 1194.46 168.651C1194.46 171.349 1195.02 173.781 1196.13 175.95C1197.29 178.065 1198.85 179.731 1200.81 180.948C1202.82 182.164 1205.09 182.773 1207.63 182.773Z" fill="#576680"/>
<path d="M1167.94 189.515V147.865H1176.11V189.515H1167.94ZM1171.9 138.662C1170.16 138.662 1168.81 138.212 1167.86 137.313C1166.91 136.414 1166.43 135.145 1166.43 133.505C1166.43 131.972 1166.91 130.729 1167.86 129.777C1168.86 128.825 1170.21 128.349 1171.9 128.349C1173.65 128.349 1175 128.798 1175.95 129.697C1176.9 130.596 1177.38 131.866 1177.38 133.505C1177.38 135.039 1176.88 136.282 1175.87 137.234C1174.92 138.186 1173.6 138.662 1171.9 138.662Z" fill="#576680"/>
<path d="M1134.59 189.516V147.866H1142.84V160.956L1142.05 157.782C1142.63 155.773 1143.61 153.948 1144.98 152.308C1146.41 150.669 1148.02 149.373 1149.82 148.421C1151.67 147.469 1153.58 146.993 1155.53 146.993C1156.43 146.993 1157.28 147.072 1158.07 147.231C1158.92 147.39 1159.58 147.575 1160.06 147.786L1157.91 156.672C1157.28 156.407 1156.57 156.196 1155.77 156.037C1155.03 155.826 1154.29 155.72 1153.55 155.72C1152.12 155.72 1150.75 156.011 1149.43 156.592C1148.16 157.121 1147.02 157.888 1146.01 158.893C1145.06 159.845 1144.29 160.982 1143.71 162.304C1143.13 163.574 1142.84 164.975 1142.84 166.509V189.516H1134.59Z" fill="#576680"/>
<path d="M1107.54 190.311C1103.26 190.311 1099.45 189.412 1096.12 187.613C1092.84 185.762 1090.25 183.25 1088.34 180.077C1086.49 176.903 1085.57 173.254 1085.57 169.129C1085.57 165.849 1086.1 162.861 1087.15 160.164C1088.21 157.467 1089.67 155.139 1091.52 153.183C1093.42 151.173 1095.67 149.639 1098.26 148.581C1100.91 147.47 1103.76 146.915 1106.83 146.915C1109.53 146.915 1112.04 147.444 1114.37 148.502C1116.69 149.507 1118.7 150.908 1120.4 152.707C1122.14 154.505 1123.46 156.647 1124.36 159.133C1125.31 161.565 1125.76 164.236 1125.71 167.145L1125.63 170.636H1091.6L1089.77 164.131H1118.57L1117.38 165.479V163.575C1117.22 161.83 1116.64 160.27 1115.64 158.895C1114.63 157.519 1113.36 156.435 1111.83 155.642C1110.29 154.849 1108.63 154.452 1106.83 154.452C1103.97 154.452 1101.57 155.007 1099.61 156.118C1097.65 157.176 1096.17 158.762 1095.17 160.878C1094.16 162.941 1093.66 165.506 1093.66 168.573C1093.66 171.482 1094.27 174.021 1095.48 176.189C1096.7 178.305 1098.42 179.944 1100.64 181.108C1102.86 182.272 1105.43 182.853 1108.34 182.853C1110.4 182.853 1112.3 182.51 1114.05 181.822C1115.85 181.134 1117.78 179.892 1119.84 178.093L1123.97 183.885C1122.7 185.154 1121.14 186.265 1119.28 187.217C1117.49 188.169 1115.56 188.936 1113.49 189.517C1111.48 190.046 1109.5 190.311 1107.54 190.311Z" fill="#576680"/>
<path d="M1057.45 189.517L1039.83 147.867H1048.64L1061.33 179.045L1059.83 179.759L1073.39 147.867H1081.8L1063.32 189.517H1057.45Z" fill="#576680"/>
<path d="M1013.49 190.31C1010.48 190.31 1007.67 189.913 1005.08 189.12C1002.54 188.326 1000.21 187.136 998.099 185.55C996.037 183.91 994.185 181.9 992.546 179.52L998.417 172.777C1001.01 176.479 1003.49 179.044 1005.87 180.472C1008.25 181.9 1011.08 182.614 1014.36 182.614C1016.37 182.614 1018.2 182.297 1019.84 181.662C1021.48 181.028 1022.77 180.155 1023.72 179.044C1024.68 177.934 1025.15 176.664 1025.15 175.236C1025.15 174.284 1024.99 173.385 1024.68 172.539C1024.36 171.693 1023.86 170.926 1023.17 170.238C1022.53 169.551 1021.69 168.916 1020.63 168.334C1019.63 167.752 1018.44 167.25 1017.06 166.827C1015.68 166.351 1014.1 165.954 1012.3 165.637C1009.44 165.055 1006.96 164.288 1004.84 163.336C1002.73 162.384 1000.96 161.194 999.527 159.766C998.099 158.338 997.042 156.725 996.354 154.927C995.666 153.076 995.323 151.013 995.323 148.739C995.323 146.517 995.799 144.455 996.751 142.551C997.755 140.647 999.104 139.007 1000.8 137.632C1002.54 136.204 1004.58 135.12 1006.91 134.379C1009.23 133.586 1011.74 133.189 1014.44 133.189C1017.3 133.189 1019.92 133.56 1022.3 134.3C1024.68 135.04 1026.79 136.151 1028.64 137.632C1030.49 139.06 1032.03 140.832 1033.24 142.947L1027.21 148.897C1026.16 147.152 1024.97 145.698 1023.64 144.534C1022.32 143.318 1020.87 142.418 1019.28 141.837C1017.69 141.202 1016 140.885 1014.2 140.885C1012.14 140.885 1010.34 141.202 1008.81 141.837C1007.28 142.471 1006.06 143.37 1005.16 144.534C1004.31 145.645 1003.89 146.967 1003.89 148.501C1003.89 149.611 1004.1 150.643 1004.53 151.595C1004.95 152.494 1005.58 153.314 1006.43 154.054C1007.33 154.742 1008.52 155.376 1010 155.958C1011.48 156.487 1013.25 156.963 1015.31 157.386C1018.22 158.021 1020.82 158.841 1023.09 159.845C1025.36 160.797 1027.29 161.935 1028.88 163.257C1030.47 164.579 1031.66 166.06 1032.45 167.7C1033.3 169.339 1033.72 171.111 1033.72 173.015C1033.72 176.558 1032.9 179.626 1031.26 182.218C1029.62 184.809 1027.29 186.819 1024.28 188.247C1021.26 189.622 1017.67 190.31 1013.49 190.31Z" fill="#576680"/>
<path d="M937.873 190.309C934.435 190.309 931.288 189.357 928.432 187.453C925.629 185.549 923.381 182.958 921.689 179.679C919.996 176.399 919.15 172.697 919.15 168.572C919.15 164.394 919.996 160.691 921.689 157.465C923.434 154.186 925.761 151.621 928.67 149.77C931.632 147.919 934.937 146.993 938.587 146.993C940.755 146.993 942.738 147.31 944.537 147.945C946.335 148.58 947.895 149.479 949.217 150.642C950.593 151.753 951.703 153.049 952.549 154.53C953.449 156.011 954.004 157.597 954.215 159.29L952.391 158.655V147.866H960.641V189.516H952.391V179.599L954.295 179.044C953.977 180.472 953.316 181.873 952.311 183.249C951.359 184.571 950.117 185.761 948.583 186.819C947.102 187.876 945.436 188.723 943.585 189.357C941.786 189.992 939.882 190.309 937.873 190.309ZM940.015 182.773C942.5 182.773 944.695 182.164 946.599 180.948C948.503 179.731 949.984 178.065 951.042 175.95C952.153 173.781 952.708 171.322 952.708 168.572C952.708 165.874 952.153 163.468 951.042 161.352C949.984 159.237 948.503 157.571 946.599 156.354C944.695 155.138 942.5 154.53 940.015 154.53C937.582 154.53 935.413 155.138 933.509 156.354C931.658 157.571 930.177 159.237 929.067 161.352C928.009 163.468 927.48 165.874 927.48 168.572C927.48 171.322 928.009 173.781 929.067 175.95C930.177 178.065 931.658 179.731 933.509 180.948C935.413 182.164 937.582 182.773 940.015 182.773Z" fill="#576680"/>
<path d="M888.974 207.763C886.012 207.763 883.05 207.287 880.088 206.335C877.179 205.436 874.826 204.246 873.028 202.765L876.042 196.418C877.1 197.211 878.343 197.899 879.771 198.481C881.199 199.115 882.706 199.591 884.293 199.909C885.88 200.279 887.44 200.464 888.974 200.464C891.883 200.464 894.315 199.988 896.272 199.036C898.229 198.084 899.71 196.682 900.715 194.831C901.72 192.98 902.222 190.679 902.222 187.929V179.917L903.095 180.472C902.831 182.111 901.958 183.698 900.477 185.232C899.049 186.713 897.251 187.929 895.082 188.881C892.914 189.833 890.693 190.309 888.418 190.309C884.452 190.309 880.908 189.384 877.788 187.533C874.72 185.629 872.287 183.063 870.489 179.837C868.691 176.558 867.792 172.829 867.792 168.651C867.792 164.473 868.664 160.771 870.41 157.544C872.208 154.265 874.641 151.7 877.708 149.849C880.829 147.945 884.319 146.993 888.18 146.993C889.767 146.993 891.301 147.205 892.782 147.628C894.263 147.998 895.638 148.553 896.907 149.294C898.176 149.981 899.313 150.748 900.318 151.594C901.323 152.441 902.143 153.34 902.778 154.292C903.412 155.244 903.809 156.143 903.968 156.989L902.222 157.624V147.866H910.394V186.977C910.394 190.309 909.891 193.245 908.886 195.783C907.934 198.375 906.533 200.543 904.682 202.289C902.831 204.087 900.583 205.436 897.938 206.335C895.294 207.287 892.306 207.763 888.974 207.763ZM889.291 182.773C891.883 182.773 894.183 182.164 896.193 180.948C898.203 179.731 899.763 178.065 900.874 175.95C901.984 173.834 902.54 171.401 902.54 168.651C902.54 165.901 901.958 163.468 900.794 161.352C899.684 159.184 898.123 157.492 896.114 156.275C894.157 155.059 891.883 154.45 889.291 154.45C886.752 154.45 884.478 155.085 882.468 156.354C880.511 157.571 878.951 159.263 877.788 161.432C876.677 163.547 876.122 165.954 876.122 168.651C876.122 171.349 876.677 173.781 877.788 175.95C878.951 178.065 880.511 179.731 882.468 180.948C884.478 182.164 886.752 182.773 889.291 182.773Z" fill="#576680"/>
<path d="M849.598 189.515V147.865H857.769V189.515H849.598ZM853.564 138.662C851.819 138.662 850.47 138.212 849.518 137.313C848.566 136.414 848.09 135.145 848.09 133.505C848.09 131.972 848.566 130.729 849.518 129.777C850.523 128.825 851.872 128.349 853.564 128.349C855.31 128.349 856.658 128.798 857.61 129.697C858.562 130.596 859.038 131.866 859.038 133.505C859.038 135.039 858.536 136.282 857.531 137.234C856.579 138.186 855.257 138.662 853.564 138.662Z" fill="#576680"/>
<path d="M828.497 189.517V130.81H836.668V189.517H828.497Z" fill="#576680"/>
<path d="M803.048 189.517V137.236H811.22V189.517H803.048ZM794.401 155.801V147.867H820.898V155.801H794.401Z" fill="#576680"/>
<path d="M750.712 189.516V147.866H758.884V156.434L757.456 157.386C757.985 155.535 759.016 153.842 760.55 152.308C762.084 150.722 763.908 149.452 766.024 148.5C768.139 147.495 770.308 146.993 772.529 146.993C775.703 146.993 778.347 147.628 780.463 148.897C782.578 150.114 784.165 151.991 785.223 154.53C786.28 157.068 786.809 160.268 786.809 164.129V189.516H778.638V164.684C778.638 162.304 778.321 160.348 777.686 158.814C777.051 157.227 776.073 156.09 774.751 155.402C773.428 154.662 771.789 154.345 769.832 154.45C768.245 154.45 766.791 154.715 765.468 155.244C764.146 155.72 762.983 156.407 761.978 157.306C761.026 158.206 760.259 159.263 759.677 160.48C759.148 161.643 758.884 162.913 758.884 164.288V189.516H754.838C754.15 189.516 753.463 189.516 752.775 189.516C752.088 189.516 751.4 189.516 750.712 189.516Z" fill="#576680"/>
<path d="M723.661 190.311C719.376 190.311 715.568 189.412 712.236 187.613C708.957 185.762 706.366 183.25 704.462 180.077C702.611 176.903 701.685 173.254 701.685 169.129C701.685 165.849 702.214 162.861 703.272 160.164C704.33 157.467 705.784 155.139 707.635 153.183C709.539 151.173 711.787 149.639 714.378 148.581C717.023 147.47 719.879 146.915 722.946 146.915C725.644 146.915 728.156 147.444 730.483 148.502C732.81 149.507 734.82 150.908 736.513 152.707C738.258 154.505 739.58 156.647 740.479 159.133C741.431 161.565 741.881 164.236 741.828 167.145L741.749 170.636H707.714L705.89 164.131H734.688L733.498 165.479V163.575C733.339 161.83 732.757 160.27 731.753 158.895C730.748 157.519 729.478 156.435 727.945 155.642C726.411 154.849 724.745 154.452 722.946 154.452C720.09 154.452 717.684 155.007 715.727 156.118C713.77 157.176 712.289 158.762 711.284 160.878C710.28 162.941 709.777 165.506 709.777 168.573C709.777 171.482 710.385 174.021 711.602 176.189C712.818 178.305 714.537 179.944 716.758 181.108C718.98 182.272 721.545 182.853 724.454 182.853C726.517 182.853 728.421 182.51 730.166 181.822C731.964 181.134 733.895 179.892 735.957 178.093L740.083 183.885C738.813 185.154 737.253 186.265 735.402 187.217C733.604 188.169 731.673 188.936 729.611 189.517C727.601 190.046 725.617 190.311 723.661 190.311Z" fill="#576680"/>
<path d="M647.935 189.515V143.185C647.935 140.805 648.464 138.689 649.522 136.838C650.579 134.987 652.034 133.532 653.885 132.474C655.736 131.417 657.878 130.888 660.311 130.888C662.004 130.888 663.59 131.205 665.071 131.84C666.552 132.474 667.742 133.321 668.641 134.378L665.864 140.646C665.177 140.011 664.41 139.509 663.564 139.139C662.77 138.715 662.004 138.504 661.263 138.504C660.152 138.504 659.2 138.689 658.407 139.059C657.667 139.377 657.111 139.905 656.741 140.646C656.371 141.333 656.186 142.18 656.186 143.185V189.515H652.06C651.373 189.515 650.685 189.515 649.998 189.515C649.31 189.515 648.623 189.515 647.935 189.515ZM641.271 156.116V148.579H666.023V156.116H641.271ZM679.113 189.515V143.185C679.113 140.805 679.642 138.689 680.7 136.838C681.758 134.987 683.212 133.532 685.063 132.474C686.914 131.417 689.056 130.888 691.489 130.888C693.182 130.888 694.768 131.205 696.249 131.84C697.73 132.474 698.92 133.321 699.819 134.378L697.043 140.646C696.355 140.011 695.588 139.509 694.742 139.139C693.949 138.715 693.182 138.504 692.441 138.504C691.331 138.504 690.379 138.689 689.585 139.059C688.845 139.377 688.289 139.905 687.919 140.646C687.549 141.333 687.364 142.18 687.364 143.185V189.515H683.239C682.551 189.515 681.863 189.515 681.176 189.515C680.488 189.515 679.801 189.515 679.113 189.515ZM672.449 156.116V148.579H697.201V156.116H672.449Z" fill="#576680"/>
<path d="M614.869 190.309C610.797 190.309 607.148 189.384 603.921 187.533C600.748 185.629 598.236 183.063 596.385 179.837C594.533 176.558 593.608 172.829 593.608 168.651C593.608 164.473 594.533 160.771 596.385 157.544C598.236 154.265 600.748 151.7 603.921 149.849C607.148 147.945 610.797 146.993 614.869 146.993C618.889 146.993 622.485 147.945 625.659 149.849C628.885 151.7 631.424 154.265 633.275 157.544C635.126 160.771 636.051 164.473 636.051 168.651C636.051 172.829 635.126 176.558 633.275 179.837C631.424 183.063 628.885 185.629 625.659 187.533C622.485 189.384 618.889 190.309 614.869 190.309ZM614.869 182.852C617.355 182.852 619.576 182.244 621.533 181.027C623.49 179.758 625.024 178.065 626.135 175.95C627.245 173.781 627.774 171.349 627.721 168.651C627.774 165.901 627.245 163.468 626.135 161.352C625.024 159.184 623.49 157.492 621.533 156.275C619.576 155.059 617.355 154.45 614.869 154.45C612.384 154.45 610.136 155.085 608.126 156.354C606.169 157.571 604.635 159.263 603.525 161.432C602.414 163.547 601.885 165.954 601.938 168.651C601.885 171.349 602.414 173.781 603.525 175.95C604.635 178.065 606.169 179.758 608.126 181.027C610.136 182.244 612.384 182.852 614.869 182.852Z" fill="#576680"/>
<path d="M548.625 189.517V137.236H556.796V189.517H548.625ZM539.978 155.801V147.867H566.475V155.801H539.978Z" fill="#576680"/>
<path d="M516.411 190.311C512.127 190.311 508.319 189.412 504.987 187.613C501.708 185.762 499.117 183.25 497.213 180.077C495.362 176.903 494.436 173.254 494.436 169.129C494.436 165.849 494.965 162.861 496.023 160.164C497.08 157.467 498.535 155.139 500.386 153.183C502.29 151.173 504.538 149.639 507.129 148.581C509.774 147.47 512.63 146.915 515.697 146.915C518.395 146.915 520.907 147.444 523.234 148.502C525.561 149.507 527.571 150.908 529.264 152.707C531.009 154.505 532.331 156.647 533.23 159.133C534.182 161.565 534.632 164.236 534.579 167.145L534.5 170.636H500.465L498.641 164.131H527.439L526.249 165.479V163.575C526.09 161.83 525.508 160.27 524.504 158.895C523.499 157.519 522.229 156.435 520.696 155.642C519.162 154.849 517.496 154.452 515.697 154.452C512.841 154.452 510.435 155.007 508.478 156.118C506.521 157.176 505.04 158.762 504.035 160.878C503.031 162.941 502.528 165.506 502.528 168.573C502.528 171.482 503.136 174.021 504.353 176.189C505.569 178.305 507.288 179.944 509.509 181.108C511.731 182.272 514.296 182.853 517.205 182.853C519.267 182.853 521.172 182.51 522.917 181.822C524.715 181.134 526.646 179.892 528.708 178.093L532.834 183.885C531.564 185.154 530.004 186.265 528.153 187.217C526.355 188.169 524.424 188.936 522.362 189.517C520.352 190.046 518.368 190.311 516.411 190.311Z" fill="#576680"/>
<path d="M439.699 189.515V133.982H461.437C465.403 133.982 468.973 134.643 472.147 135.965C475.373 137.287 478.123 139.191 480.397 141.677C482.672 144.163 484.417 147.098 485.633 150.483C486.85 153.868 487.458 157.623 487.458 161.748C487.458 165.874 486.85 169.655 485.633 173.093C484.417 176.478 482.672 179.413 480.397 181.899C478.176 184.332 475.452 186.21 472.226 187.532C469 188.854 465.403 189.515 461.437 189.515H439.699ZM448.267 182.137L448.029 181.264H461.04C463.843 181.264 466.329 180.815 468.497 179.916C470.719 179.017 472.57 177.747 474.051 176.108C475.585 174.415 476.748 172.353 477.541 169.92C478.335 167.487 478.731 164.763 478.731 161.748C478.731 158.734 478.335 156.036 477.541 153.656C476.748 151.223 475.585 149.161 474.051 147.468C472.517 145.776 470.666 144.48 468.497 143.581C466.329 142.682 463.843 142.232 461.04 142.232H447.791L448.267 141.518V182.137Z" fill="#576680"/>
</svg>
