<svg width="680" height="384" viewBox="0 0 680 384" fill="none" xmlns="http://www.w3.org/2000/svg">
<path fill-rule="evenodd" clip-rule="evenodd" d="M564.137 215.674C570.94 215.674 576.995 216.54 583.263 219.189C588.674 221.475 593.606 224.502 598.393 227.796C605.128 232.431 610.432 237.824 614.145 244.971C616.364 249.24 617.992 255.282 616.501 259.939C614.747 265.424 609.928 269.998 603.582 269.032C599.657 268.435 596.061 265.89 593.078 263.494C589.509 260.628 586.653 257.182 584.295 253.355C580.448 247.113 578.188 240.056 574.919 233.532C573.369 230.436 571.87 227.318 570.012 224.376C569.093 222.92 568.114 221.476 566.719 220.394C565.973 219.814 562.827 218.811 564.03 217.511C546.387 217.738 530.757 231.013 527.369 247.446C527.055 248.977 526.808 250.522 526.547 252.062C526.383 253.035 526.45 256.624 525.562 257.245C523.603 258.617 524.426 254.451 524.511 253.852C524.728 252.301 524.959 250.753 525.202 249.206C526.525 240.796 530.347 232.978 536.719 226.98C544.007 220.122 553.84 215.674 564.137 215.674Z" fill="#89C5CC"/>
<path fill-rule="evenodd" clip-rule="evenodd" d="M608.182 80.5188C607.697 80.184 606.546 80.0658 606.01 79.9649C603.783 79.5491 601.489 79.3679 599.219 79.3679C592.219 79.3783 585.106 80.0296 578.222 81.1572C573.851 81.8723 568.568 84.2818 564.22 82.9731C556.646 80.6939 548.991 80.806 541.805 84.0601C535.235 87.0355 530.248 92.6871 527.337 98.7932C526.898 99.7154 525.116 103.108 524.612 105.395C524.396 105.863 524.189 106.333 524.002 106.811C523.473 108.168 522.997 109.548 522.556 110.932C522.366 111.522 521.892 112.825 522.455 113.077C521.556 114.653 520.757 116.277 520.093 117.953C518.159 122.829 516.044 128.177 515.365 133.345C515.114 135.258 515.104 137.183 515.337 139.1C515.453 140.048 515.406 141.953 516.083 142.674C517.521 144.203 518.259 142.063 518.097 141.043C516.86 133.273 519.25 125.977 522.082 118.673C523.915 113.951 526.925 109.63 530.297 105.717C533.026 102.549 535.953 100.055 539.693 97.9555C544.268 95.3873 549.159 93.3117 554.004 91.2291C557.191 89.8591 560.382 88.5254 563.658 87.3453C564.387 87.0821 565.532 86.4084 566.34 86.4058C568.048 86.4006 570.469 87.5954 572.119 88.0397C577.546 89.5029 583.041 91.3758 588.65 92.1229C592.248 92.6025 595.618 92.0625 598.982 90.9263C599.326 90.8107 599.902 90.5122 600.608 90.086C603.106 89.175 605.469 88.0285 607.526 86.3739C608.711 85.4215 609.787 84.1895 610.768 83.062C611.061 82.7255 611.191 82.339 611.196 81.9715C611.418 81.862 611.565 81.7326 611.599 81.5825C611.844 80.473 609.612 80.4532 608.182 80.5188Z" fill="#89C5CC"/>
<path fill-rule="evenodd" clip-rule="evenodd" d="M42.2759 173.006C40.9026 174.06 39.5557 175.136 38.2417 176.257C37.2402 177.111 35.4679 178.133 35.1083 179.427C34.7346 180.772 35.9144 182.031 36.8465 182.844C41.7754 187.143 47.3254 190.05 54.1551 190.534C64.6716 191.278 73.8241 188.732 82.9485 183.722C89.3577 180.202 93.6033 174.997 94.5304 167.967C102.163 170.975 109.545 175.121 115.819 180.209C118.915 182.719 121.58 185.501 124.046 188.584C125.626 190.56 127.154 192.566 128.571 194.651C129.187 195.556 129.814 197.162 130.831 197.683C132.026 198.295 133.47 197.335 133.41 196.077C133.361 195.028 132.168 193.813 131.609 192.956C130.683 191.534 129.742 190.12 128.751 188.737C127.148 186.496 125.491 184.289 123.684 182.192C119.622 177.482 114.455 173.592 109.099 170.274C98.8224 163.909 87.5443 159.899 75.0406 159.56C67.3521 159.351 60.8846 161.841 54.3097 165.56C50.2162 167.876 45.9906 170.153 42.2759 173.006Z" fill="#DDE3E9"/>
<path fill-rule="evenodd" clip-rule="evenodd" d="M147.468 138.769C139.455 130.946 131.416 123.221 122.464 116.331C117.189 112.272 111.629 108.581 106.184 104.732C106.812 105.254 107.428 105.791 108.03 106.341C106.33 105.247 104.105 104.629 102.304 103.616C100.294 102.487 98.3721 101.194 96.4877 99.8926C92.8091 97.3511 89.1859 94.7613 85.4044 92.3527C81.1916 89.6688 76.826 87.1894 72.5413 84.6065C68.9045 82.4153 65.224 80.0161 61.3333 78.2243C59.2133 77.2477 57.0887 76.0909 54.9595 75.072C54.2471 74.7313 47.0171 70.4031 47.0353 70.3893C47.4348 70.1046 51.0734 71.7248 51.6357 71.943C53.279 72.5797 54.8513 73.3406 56.4308 74.0998C55.5637 72.4779 54.8776 70.7732 54.5037 68.9797C54.3881 68.4258 53.4637 64.3953 53.9368 64.0571C54.1725 63.888 56.4791 71.1002 56.5973 71.7929C56.6938 72.3563 56.6792 73.1672 56.8739 73.7003C57.1879 74.5622 57.1724 74.3016 57.8639 74.7873C59.1314 75.6768 60.8138 76.2323 62.185 76.9751C62.9256 77.3668 65.2158 78.9196 66.5952 79.3622C70.7688 81.2843 74.9998 84.2416 78.966 86.6968C77.9251 84.842 77.1326 82.9027 76.5557 80.8702C76.4183 80.3879 74.9352 76.0598 75.2955 75.8027C75.7004 75.5129 78.5247 82.1245 78.6921 82.75C79.0024 83.9129 79.067 85.2061 79.4565 86.338C79.8832 87.5794 81.2162 88.0194 82.4172 88.7432C86.8365 91.4054 91.1048 94.2342 95.3012 97.1932C99.8807 89.4713 94.6006 80.1473 90.1513 73.6684C86.943 68.9987 82.6256 64.9957 78.0661 61.501C71.9808 56.8364 65.0193 53.1104 58.0659 49.7019C49.9643 45.7309 41.2072 43.2696 32.1034 42.1335C27.342 41.5382 22.4708 41.5555 17.6612 41.7461C15.3118 41.8384 13.0566 42.1335 10.8051 42.8607C9.79033 43.1885 8.80957 43.6018 7.85382 44.0642C7.12764 44.4153 5.37101 44.7862 4.95346 45.3099C1.51654 49.5518 -0.241727 53.7781 0.0267811 59.1078C0.28064 64.1529 1.9612 69.2005 4.24193 73.7012C6.78188 78.7117 10.0486 83.2599 14.3209 87.0773C17.5805 89.9897 21.2247 92.5243 24.8449 95.0261C37.7208 103.923 54.0451 111.662 70.7215 109.673C76.1199 109.03 81.2544 107.24 86.0522 104.807C87.1832 104.235 88.3069 103.655 89.3742 102.978C90.0939 102.522 92.0174 100.466 92.7408 100.391C93.7335 100.289 95.8699 102.202 96.8007 102.784C103.874 107.212 110.762 111.879 117.505 116.734C124.681 121.9 131.503 127.418 138.125 133.194C140.941 135.651 143.74 138.114 146.474 140.654C147.111 141.245 148.668 143.421 149.823 143.519C150.552 143.582 151.045 142.99 150.941 142.35C150.76 141.236 148.289 139.571 147.468 138.769Z" fill="#C1DEE2"/>
<path fill-rule="evenodd" clip-rule="evenodd" d="M602.5 111.857C599.397 111.214 595.97 111.263 592.809 111.316C575.854 111.535 559.205 119.146 548.37 131.306C539.145 141.659 536.608 154.53 534.786 167.541C534.606 168.833 534.528 170.116 534.427 171.411C534.405 171.689 534.372 171.937 534.336 172.17C533.62 172.778 533.244 173.486 533.669 174.264C532.09 177.54 530.754 180.898 529.608 184.363C526.235 194.56 522.805 204.951 524.917 215.674C525.411 209.773 526.45 203.739 527.692 197.935C527.763 197.602 527.841 197.271 527.921 196.942C527.93 196.907 527.937 196.872 527.945 196.837C528.385 195.06 528.956 193.337 529.651 191.64C529.659 191.621 529.666 191.603 529.673 191.584C529.765 191.361 529.863 191.138 529.959 190.917C530.158 190.457 530.363 189.998 530.58 189.542C530.653 189.386 530.723 189.228 530.792 189.071C531.803 186.719 532.23 184.069 533.137 181.636C533.354 181.083 533.58 180.532 533.818 179.983C533.832 179.951 533.846 179.919 533.861 179.887C534.503 178.411 535.212 176.954 535.962 175.512C536.37 175.221 536.588 174.501 536.94 173.846C537.012 173.716 537.58 172.856 537.749 172.36C538.192 171.55 538.631 170.74 539.076 169.931C539.063 169.936 539.05 169.94 539.036 169.946C539.481 169.168 539.928 168.395 540.371 167.625C540.468 167.456 540.566 167.287 540.665 167.117C540.824 166.847 540.983 166.577 541.142 166.308C542.626 163.788 544.201 161.319 545.837 158.88C546.421 158.009 547.815 156.761 548.082 155.784C548.092 155.747 548.094 155.714 548.1 155.679C551.649 150.953 555.733 146.595 560.633 143.142C560.041 143.749 558.782 145.808 558.449 146.216C557.43 147.465 556.325 148.627 555.216 149.803C553.228 151.911 551.288 154.085 549.563 156.384C546.41 160.589 543.69 165.014 541.118 169.528C541.094 169.554 541.067 169.579 541.044 169.606C539.751 171.117 538.938 173.4 538.008 175.128C541.689 173.511 545.761 172.458 549.539 171.022C553.308 169.591 556.973 167.997 560.512 166.126C565.215 163.638 570.095 160.829 574.539 157.651C579.632 154.656 583.912 150.533 587.69 146.207C592.159 141.088 596.255 135.924 598.788 129.709C600.033 126.655 601.012 123.47 601.593 120.247C601.618 120.108 601.65 119.955 601.686 119.797C602.28 118.684 602.81 117.546 603.256 116.383C603.963 114.536 605.634 112.506 602.5 111.857Z" fill="#69A1AC"/>
<path fill-rule="evenodd" clip-rule="evenodd" d="M54.1613 132.735C53.1013 131.732 51.9103 130.828 50.5118 130.183C50.1587 130.02 47.5255 128.928 47.3536 129.168C46.9541 129.726 53.8429 132.416 54.1613 132.735ZM66.645 126.039C66.6368 126.081 67.5494 127.434 67.7978 127.849C68.3274 128.734 68.816 129.635 69.2755 130.538C68.5949 128.943 67.8961 127.464 66.645 126.039ZM2.79807 137.051C1.91866 137.298 0.861463 136.323 2.0021 136.083C2.92491 135.891 2.87968 135.845 3.29405 135.196C3.63052 134.669 3.83789 134.025 4.13315 133.472C4.75942 132.299 5.46995 131.18 6.34199 130.132C8.21099 127.884 10.4883 125.947 13.0423 124.315C17.4997 121.467 22.4974 118.864 27.799 117.557C36.2284 115.477 45.8222 115.348 54.2651 116.791C59.4942 117.683 64.272 119.235 67.7441 122.911C69.4793 124.749 70.8414 126.901 71.4374 129.271C71.593 129.891 71.5639 130.58 71.7586 131.186C72.057 132.119 71.9251 131.87 73.1744 132.053C74.5383 132.25 75.9013 132.453 77.2634 132.658C80.8302 133.197 84.4178 133.769 87.8936 134.643C89.0374 134.931 90.1565 135.282 91.2493 135.691C92.0764 136 95.3674 136.969 95.7678 137.907C96.4329 139.467 94.2028 138.76 93.5094 138.42C92.9025 138.122 92.2793 137.845 91.646 137.589C90.0537 136.946 88.395 136.448 86.698 136.052C84.8646 135.623 82.9939 135.303 81.1304 134.983C79.3916 134.685 77.6474 134.414 75.9004 134.154C74.9305 134.01 73.9587 133.87 72.9878 133.73C72.6557 133.682 72.0707 133.431 72.1152 133.808C70.0735 133.464 67.8652 133.514 65.7852 133.419C63.2375 133.303 60.6807 133.208 58.1248 133.278C56.2814 133.328 54.4361 133.433 52.6018 133.649C51.5299 133.776 50.4754 133.961 49.4245 134.195C48.8467 134.324 46.5692 134.597 46.2544 135.037C46.3891 134.848 48.9031 135.031 49.2234 135.02C50.5027 134.978 51.7729 134.867 53.0476 134.743C55.4133 134.512 57.7809 134.391 60.1539 134.409C60.1448 134.773 58.5243 135.421 58.1284 135.662C57.2404 136.203 56.3906 136.793 55.5981 137.44C54.2014 138.58 52.529 139.991 51.5627 141.341C51.8475 140.943 53.2524 140.426 53.7501 140.121C54.549 139.634 55.3315 139.115 56.0712 138.559C56.7545 138.046 57.3923 137.492 58.0193 136.926C58.6462 136.36 59.4978 135.182 60.3213 134.805C60.3713 134.782 60.7307 135.031 60.9345 134.946C61.1402 134.861 61.3959 134.437 61.4486 134.42C62.2157 134.161 63.6724 134.483 64.4786 134.515C66.5695 134.599 68.6586 134.71 70.7477 134.81C71.3955 134.841 71.9451 134.712 72.1899 135.129C72.4501 135.574 71.9733 136.743 71.8368 137.227C71.3337 139.027 70.4383 140.639 69.0298 142.033C66.3921 144.644 63.1392 146.384 59.4651 147.548C45.39 152.008 30.4161 153.793 16.3456 149.155C10.5204 147.234 1.7476 143.802 2.79807 137.051Z" fill="#89C5CC"/>
<mask id="mask0_805_15306" style="mask-type:luminance" maskUnits="userSpaceOnUse" x="42" y="153" width="502" height="215">
<path d="M521.213 153.067L42.3694 214.099L64.19 368L543.033 306.968L521.213 153.067Z" fill="white"/>
</mask>
<g mask="url(#mask0_805_15306)">
<g opacity="0.6">
<path fill-rule="evenodd" clip-rule="evenodd" d="M534.633 249.218C547.704 291.292 382.401 340.891 233.929 339.904C85.4563 338.918 7.78798 271.065 71.5441 221.51C135.299 171.954 521.561 207.144 534.633 249.218Z" fill="#F2EDE8"/>
</g>
</g>
<mask id="mask1_805_15306" style="mask-type:luminance" maskUnits="userSpaceOnUse" x="108" y="0" width="146" height="261">
<path d="M253.121 0H108.448V260.534H253.121V0Z" fill="white"/>
</mask>
<g mask="url(#mask1_805_15306)">
<path d="M245.842 0H115.728C111.707 0 108.448 3.08993 108.448 6.90156V253.632C108.448 257.444 111.707 260.534 115.728 260.534H245.842C249.862 260.534 253.121 257.444 253.121 253.632V6.90156C253.121 3.08993 249.862 0 245.842 0Z" fill="#F2F2F2"/>
<path fill-rule="evenodd" clip-rule="evenodd" d="M180.33 244.143C187.867 244.143 193.978 238.349 193.978 231.202C193.978 224.056 187.867 218.262 180.33 218.262C172.792 218.262 166.681 224.056 166.681 231.202C166.681 238.349 172.792 244.143 180.33 244.143Z" fill="white"/>
<path fill-rule="evenodd" clip-rule="evenodd" d="M168.501 17.254C169.507 17.254 170.321 16.4819 170.321 15.5286C170.321 14.5753 169.507 13.8032 168.501 13.8032C167.496 13.8032 166.681 14.5753 166.681 15.5286C166.681 16.4819 167.496 17.254 168.501 17.254Z" fill="white"/>
<path d="M192.158 13.8032H176.69C175.685 13.8032 174.87 14.5757 174.87 15.5286C174.87 16.4815 175.685 17.254 176.69 17.254H192.158C193.163 17.254 193.978 16.4815 193.978 15.5286C193.978 14.5757 193.163 13.8032 192.158 13.8032Z" fill="white"/>
<mask id="mask2_805_15306" style="mask-type:luminance" maskUnits="userSpaceOnUse" x="121" y="24" width="120" height="177">
<path d="M240.382 24.1555H121.187V200.145H240.382V24.1555Z" fill="white"/>
</mask>
<g mask="url(#mask2_805_15306)">
<mask id="mask3_805_15306" style="mask-type:luminance" maskUnits="userSpaceOnUse" x="121" y="24" width="120" height="47">
<path d="M240.382 24.1555H121.187V70.7411H240.382V24.1555Z" fill="white"/>
</mask>
<g mask="url(#mask3_805_15306)">
<path d="M236.743 24.1555H124.827C122.816 24.1555 121.187 25.7005 121.187 27.6063V67.2903C121.187 69.1961 122.816 70.7411 124.827 70.7411H236.743C238.753 70.7411 240.382 69.1961 240.382 67.2903V27.6063C240.382 25.7005 238.753 24.1555 236.743 24.1555Z" fill="white"/>
<mask id="mask4_805_15306" style="mask-type:luminance" maskUnits="userSpaceOnUse" x="156" y="38" width="68" height="19">
<path d="M223.094 38.1311H156.673V56.7653H223.094V38.1311Z" fill="white"/>
</mask>
<g mask="url(#mask4_805_15306)">
<path d="M220.365 38.1311H159.402C157.895 38.1311 156.673 39.2898 156.673 40.7192V42.5309C156.673 43.9602 157.895 45.1189 159.402 45.1189H220.365C221.872 45.1189 223.094 43.9602 223.094 42.5309V40.7192C223.094 39.2898 221.872 38.1311 220.365 38.1311Z" fill="#DDE3E9"/>
<path d="M198.527 49.7776H159.402C157.895 49.7776 156.673 50.9363 156.673 52.3657V54.1773C156.673 55.6067 157.895 56.7654 159.402 56.7654H198.527C200.035 56.7654 201.257 55.6067 201.257 54.1773V52.3657C201.257 50.9363 200.035 49.7776 198.527 49.7776Z" fill="#DDE3E9"/>
</g>
<path fill-rule="evenodd" clip-rule="evenodd" d="M140.295 57.8006C146.324 57.8006 151.213 53.1654 151.213 47.4483C151.213 41.7312 146.324 37.0959 140.295 37.0959C134.265 37.0959 129.376 41.7312 129.376 47.4483C129.376 53.1654 134.265 57.8006 140.295 57.8006Z" fill="#C5CFD6"/>
</g>
<mask id="mask5_805_15306" style="mask-type:luminance" maskUnits="userSpaceOnUse" x="121" y="77" width="120" height="37">
<path d="M240.382 77.6426H121.187V113.876H240.382V77.6426Z" fill="white"/>
</mask>
<g mask="url(#mask5_805_15306)">
<path d="M236.743 77.6426H124.827C122.816 77.6426 121.187 79.1875 121.187 81.0934V110.425C121.187 112.331 122.816 113.876 124.827 113.876H236.743C238.753 113.876 240.382 112.331 240.382 110.425V81.0934C240.382 79.1875 238.753 77.6426 236.743 77.6426Z" fill="white"/>
<mask id="mask6_805_15306" style="mask-type:luminance" maskUnits="userSpaceOnUse" x="156" y="88" width="68" height="16">
<path d="M223.094 88.5125H156.673V103.006H223.094V88.5125Z" fill="white"/>
</mask>
<g mask="url(#mask6_805_15306)">
<path d="M220.365 88.5125H159.402C157.895 88.5125 156.673 89.6712 156.673 91.1005V91.3593C156.673 92.7887 157.895 93.9474 159.402 93.9474H220.365C221.872 93.9474 223.094 92.7887 223.094 91.3593V91.1005C223.094 89.6712 221.872 88.5125 220.365 88.5125Z" fill="#DDE3E9"/>
<path d="M198.527 97.5708H159.402C157.895 97.5708 156.673 98.7295 156.673 100.159V100.418C156.673 101.847 157.895 103.006 159.402 103.006H198.527C200.035 103.006 201.257 101.847 201.257 100.418V100.159C201.257 98.7295 200.035 97.5708 198.527 97.5708Z" fill="#DDE3E9"/>
</g>
<path fill-rule="evenodd" clip-rule="evenodd" d="M140.295 106.111C146.324 106.111 151.213 101.476 151.213 95.7591C151.213 90.042 146.324 85.4067 140.295 85.4067C134.265 85.4067 129.376 90.042 129.376 95.7591C129.376 101.476 134.265 106.111 140.295 106.111Z" fill="#C5CFD6"/>
</g>
<mask id="mask7_805_15306" style="mask-type:luminance" maskUnits="userSpaceOnUse" x="121" y="120" width="120" height="38">
<path d="M240.382 120.777H121.187V157.011H240.382V120.777Z" fill="white"/>
</mask>
<g mask="url(#mask7_805_15306)">
<path d="M236.743 120.777H124.827C122.816 120.777 121.187 122.322 121.187 124.228V153.56C121.187 155.466 122.816 157.011 124.827 157.011H236.743C238.753 157.011 240.382 155.466 240.382 153.56V124.228C240.382 122.322 238.753 120.777 236.743 120.777Z" fill="white"/>
<mask id="mask8_805_15306" style="mask-type:luminance" maskUnits="userSpaceOnUse" x="156" y="131" width="68" height="16">
<path d="M223.094 131.647H156.673V146.14H223.094V131.647Z" fill="white"/>
</mask>
<g mask="url(#mask8_805_15306)">
<path d="M220.365 131.647H159.402C157.895 131.647 156.673 132.806 156.673 134.235V134.494C156.673 135.923 157.895 137.082 159.402 137.082H220.365C221.872 137.082 223.094 135.923 223.094 134.494V134.235C223.094 132.806 221.872 131.647 220.365 131.647Z" fill="#DDE3E9"/>
<path d="M198.527 140.706H159.402C157.895 140.706 156.673 141.864 156.673 143.294V143.552C156.673 144.982 157.895 146.141 159.402 146.141H198.527C200.035 146.141 201.257 144.982 201.257 143.552V143.294C201.257 141.864 200.035 140.706 198.527 140.706Z" fill="#DDE3E9"/>
</g>
<path fill-rule="evenodd" clip-rule="evenodd" d="M140.295 149.246C146.324 149.246 151.213 144.611 151.213 138.894C151.213 133.177 146.324 128.542 140.295 128.542C134.265 128.542 129.376 133.177 129.376 138.894C129.376 144.611 134.265 149.246 140.295 149.246Z" fill="#AFB9C5"/>
</g>
<mask id="mask9_805_15306" style="mask-type:luminance" maskUnits="userSpaceOnUse" x="121" y="163" width="120" height="38">
<path d="M240.382 163.912H121.187V200.145H240.382V163.912Z" fill="white"/>
</mask>
<g mask="url(#mask9_805_15306)">
<path d="M236.743 163.912H124.827C122.816 163.912 121.187 165.457 121.187 167.363V196.695C121.187 198.6 122.816 200.145 124.827 200.145H236.743C238.753 200.145 240.382 198.6 240.382 196.695V167.363C240.382 165.457 238.753 163.912 236.743 163.912Z" fill="white"/>
<mask id="mask10_805_15306" style="mask-type:luminance" maskUnits="userSpaceOnUse" x="156" y="174" width="68" height="16">
<path d="M223.094 174.782H156.673V189.275H223.094V174.782Z" fill="white"/>
</mask>
<g mask="url(#mask10_805_15306)">
<path d="M220.365 174.782H159.402C157.895 174.782 156.673 175.941 156.673 177.37V177.629C156.673 179.058 157.895 180.217 159.402 180.217H220.365C221.872 180.217 223.094 179.058 223.094 177.629V177.37C223.094 175.941 221.872 174.782 220.365 174.782Z" fill="#DDE3E9"/>
<path d="M198.527 183.84H159.402C157.895 183.84 156.673 184.999 156.673 186.428V186.687C156.673 188.117 157.895 189.275 159.402 189.275H198.527C200.035 189.275 201.257 188.117 201.257 186.687V186.428C201.257 184.999 200.035 183.84 198.527 183.84Z" fill="#DDE3E9"/>
</g>
<path fill-rule="evenodd" clip-rule="evenodd" d="M140.295 192.381C146.324 192.381 151.213 187.746 151.213 182.029C151.213 176.312 146.324 171.676 140.295 171.676C134.265 171.676 129.376 176.312 129.376 182.029C129.376 187.746 134.265 192.381 140.295 192.381Z" fill="#C5CFD6"/>
</g>
</g>
</g>
<mask id="mask11_805_15306" style="mask-type:luminance" maskUnits="userSpaceOnUse" x="222" y="38" width="296" height="230">
<path d="M517.898 38.8213H222.185V267.435H517.898V38.8213Z" fill="white"/>
</mask>
<g mask="url(#mask11_805_15306)">
<path d="M510.619 38.8213H229.464C225.444 38.8213 222.185 41.9112 222.185 45.7228V260.534C222.185 264.346 225.444 267.435 229.464 267.435H510.619C514.639 267.435 517.898 264.346 517.898 260.534V45.7228C517.898 41.9112 514.639 38.8213 510.619 38.8213Z" fill="#F2F2F2"/>
<path d="M496.495 67.2334H449.263C445.243 67.2334 441.984 70.3233 441.984 74.135V113.851C441.984 117.663 445.243 120.753 449.263 120.753H496.495C500.516 120.753 503.775 117.663 503.775 113.851V74.135C503.775 70.3233 500.516 67.2334 496.495 67.2334Z" fill="white"/>
<path fill-rule="evenodd" clip-rule="evenodd" d="M472.879 98.2878C480.679 98.2878 487.003 93.5542 487.003 87.7155C487.003 81.8768 480.679 77.144 472.879 77.144C465.079 77.144 458.756 81.8768 458.756 87.7155C458.756 93.5542 465.079 98.2878 472.879 98.2878Z" fill="#DDE3E9"/>
<path d="M492.857 100.93H452.902C451.748 100.93 450.812 101.818 450.812 102.912C450.812 104.007 451.748 104.895 452.902 104.895H492.857C494.012 104.895 494.948 104.007 494.948 102.912C494.948 101.818 494.012 100.93 492.857 100.93Z" fill="#DDE3E9"/>
<path d="M485.794 107.538H459.963C458.808 107.538 457.872 108.425 457.872 109.52C457.872 110.615 458.808 111.502 459.963 111.502H485.794C486.949 111.502 487.885 110.615 487.885 109.52C487.885 108.425 486.949 107.538 485.794 107.538Z" fill="#DDE3E9"/>
<path d="M222.185 45.7228C222.185 41.9115 225.444 38.8213 229.464 38.8213H510.619C514.639 38.8213 517.898 41.9115 517.898 45.7228V62.1141H222.185V45.7228Z" fill="#C5CFD6"/>
<path fill-rule="evenodd" clip-rule="evenodd" d="M234.013 54.3498C236.023 54.3498 237.653 52.8047 237.653 50.899C237.653 48.9933 236.023 47.4482 234.013 47.4482C232.003 47.4482 230.374 48.9933 230.374 50.899C230.374 52.8047 232.003 54.3498 234.013 54.3498Z" fill="#F2F2F2"/>
<path fill-rule="evenodd" clip-rule="evenodd" d="M244.932 54.3498C246.942 54.3498 248.572 52.8047 248.572 50.899C248.572 48.9933 246.942 47.4482 244.932 47.4482C242.922 47.4482 241.292 48.9933 241.292 50.899C241.292 52.8047 242.922 54.3498 244.932 54.3498Z" fill="#F2F2F2"/>
<path fill-rule="evenodd" clip-rule="evenodd" d="M255.851 54.3498C257.861 54.3498 259.49 52.8047 259.49 50.899C259.49 48.9933 257.861 47.4482 255.851 47.4482C253.841 47.4482 252.211 48.9933 252.211 50.899C252.211 52.8047 253.841 54.3498 255.851 54.3498Z" fill="#F2F2F2"/>
<mask id="mask12_805_15306" style="mask-type:luminance" maskUnits="userSpaceOnUse" x="441" y="126" width="63" height="129">
<path d="M503.775 126.038H441.984V254.221H503.775V126.038Z" fill="white"/>
</mask>
<g mask="url(#mask12_805_15306)">
<path d="M496.495 126.038H449.263C445.243 126.038 441.984 129.128 441.984 132.94V247.319C441.984 251.131 445.243 254.221 449.263 254.221H496.495C500.516 254.221 503.775 251.131 503.775 247.319V132.94C503.775 129.128 500.516 126.038 496.495 126.038Z" fill="white"/>
<mask id="mask13_805_15306" style="mask-type:luminance" maskUnits="userSpaceOnUse" x="458" y="141" width="30" height="137">
<path d="M487.478 141.567H458.362V277.872H487.478V141.567Z" fill="white"/>
</mask>
<g mask="url(#mask13_805_15306)">
<path d="M483.838 141.567H462.001C459.991 141.567 458.362 143.112 458.362 145.017V160.546C458.362 162.452 459.991 163.997 462.001 163.997H483.838C485.849 163.997 487.478 162.452 487.478 160.546V145.017C487.478 143.112 485.849 141.567 483.838 141.567Z" fill="#DDE3E9"/>
<path d="M483.838 170.898H462.001C459.991 170.898 458.362 172.443 458.362 174.349V189.015C458.362 190.921 459.991 192.466 462.001 192.466H483.838C485.849 192.466 487.478 190.921 487.478 189.015V174.349C487.478 172.443 485.849 170.898 483.838 170.898Z" fill="#AFB9C5"/>
<path d="M483.838 199.367H462.001C459.991 199.367 458.362 200.912 458.362 202.818V217.484C458.362 219.39 459.991 220.935 462.001 220.935H483.838C485.849 220.935 487.478 219.39 487.478 217.484V202.818C487.478 200.912 485.849 199.367 483.838 199.367Z" fill="#DDE3E9"/>
<path d="M483.838 227.836H462.001C459.991 227.836 458.362 229.381 458.362 231.287V245.953C458.362 247.859 459.991 249.404 462.001 249.404H483.838C485.849 249.404 487.478 247.859 487.478 245.953V231.287C487.478 229.381 485.849 227.836 483.838 227.836Z" fill="#C5CFD6"/>
</g>
</g>
<mask id="mask14_805_15306" style="mask-type:luminance" maskUnits="userSpaceOnUse" x="236" y="76" width="197" height="245">
<path d="M432.369 76.7798H236.743V320.06H432.369V76.7798Z" fill="white"/>
</mask>
<g mask="url(#mask14_805_15306)">
<mask id="mask15_805_15306" style="mask-type:luminance" maskUnits="userSpaceOnUse" x="236" y="76" width="197" height="42">
<path d="M432.369 76.7798H236.743V117.326H432.369V76.7798Z" fill="white"/>
</mask>
<g mask="url(#mask15_805_15306)">
<path d="M428.729 76.7798H240.382C238.372 76.7798 236.743 78.3248 236.743 80.2306V113.876C236.743 115.781 238.372 117.326 240.382 117.326H428.729C430.739 117.326 432.369 115.781 432.369 113.876V80.2306C432.369 78.3248 430.739 76.7798 428.729 76.7798Z" fill="white"/>
<mask id="mask16_805_15306" style="mask-type:luminance" maskUnits="userSpaceOnUse" x="244" y="88" width="144" height="18">
<path d="M387.784 88.9438H244.932V105.163H387.784V88.9438Z" fill="white"/>
</mask>
<g mask="url(#mask16_805_15306)">
<path d="M385.055 88.9438H247.662C246.154 88.9438 244.932 90.1026 244.932 91.5319V92.4378C244.932 93.8671 246.154 95.0258 247.662 95.0258H385.055C386.562 95.0258 387.784 93.8671 387.784 92.4378V91.5319C387.784 90.1026 386.562 88.9438 385.055 88.9438Z" fill="#DDE3E9"/>
<path d="M338.09 99.0806H247.662C246.154 99.0806 244.932 100.239 244.932 101.669V102.574C244.932 104.004 246.154 105.163 247.662 105.163H338.09C339.597 105.163 340.82 104.004 340.82 102.574V101.669C340.82 100.239 339.597 99.0806 338.09 99.0806Z" fill="#DDE3E9"/>
</g>
<path fill-rule="evenodd" clip-rule="evenodd" d="M415.039 103.092C418.557 103.092 421.408 100.388 421.408 97.053C421.408 93.7178 418.557 91.0142 415.039 91.0142C411.522 91.0142 408.67 93.7178 408.67 97.053C408.67 100.388 411.522 103.092 415.039 103.092Z" fill="#DDE3E9"/>
<path fill-rule="evenodd" clip-rule="evenodd" d="M415.039 99.6413C416.547 99.6413 417.769 98.4827 417.769 97.0532C417.769 95.6237 416.547 94.4651 415.039 94.4651C413.532 94.4651 412.31 95.6237 412.31 97.0532C412.31 98.4827 413.532 99.6413 415.039 99.6413Z" fill="#F2F2F2"/>
</g>
<mask id="mask17_805_15306" style="mask-type:luminance" maskUnits="userSpaceOnUse" x="236" y="124" width="197" height="34">
<path d="M432.369 124.228H236.743V157.873H432.369V124.228Z" fill="white"/>
</mask>
<g mask="url(#mask17_805_15306)">
<path d="M428.729 124.228H240.382C238.372 124.228 236.743 125.773 236.743 127.679V154.422C236.743 156.328 238.372 157.873 240.382 157.873H428.729C430.739 157.873 432.369 156.328 432.369 154.422V127.679C432.369 125.773 430.739 124.228 428.729 124.228Z" fill="white"/>
<mask id="mask18_805_15306" style="mask-type:luminance" maskUnits="userSpaceOnUse" x="244" y="134" width="144" height="14">
<path d="M387.784 134.322H244.932V147.78H387.784V134.322Z" fill="white"/>
</mask>
<g mask="url(#mask18_805_15306)">
<path d="M385.123 134.322H247.593C246.123 134.322 244.932 135.451 244.932 136.845C244.932 138.239 246.123 139.368 247.593 139.368H385.123C386.593 139.368 387.784 138.239 387.784 136.845C387.784 135.451 386.593 134.322 385.123 134.322Z" fill="#DDE3E9"/>
<path d="M338.158 142.733H247.593C246.123 142.733 244.932 143.863 244.932 145.256C244.932 146.65 246.123 147.78 247.593 147.78H338.158C339.628 147.78 340.82 146.65 340.82 145.256C340.82 143.863 339.628 142.733 338.158 142.733Z" fill="#DDE3E9"/>
</g>
<path fill-rule="evenodd" clip-rule="evenodd" d="M415.039 147.089C418.557 147.089 421.408 144.386 421.408 141.051C421.408 137.715 418.557 135.012 415.039 135.012C411.522 135.012 408.67 137.715 408.67 141.051C408.67 144.386 411.522 147.089 415.039 147.089Z" fill="#DDE3E9"/>
<path fill-rule="evenodd" clip-rule="evenodd" d="M415.039 143.639C416.547 143.639 417.769 142.48 417.769 141.05C417.769 139.621 416.547 138.462 415.039 138.462C413.532 138.462 412.31 139.621 412.31 141.05C412.31 142.48 413.532 143.639 415.039 143.639Z" fill="#F2F2F2"/>
</g>
<mask id="mask19_805_15306" style="mask-type:luminance" maskUnits="userSpaceOnUse" x="236" y="164" width="197" height="35">
<path d="M432.369 164.775H236.743V198.42H432.369V164.775Z" fill="white"/>
</mask>
<g mask="url(#mask19_805_15306)">
<path d="M428.729 164.775H240.382C238.372 164.775 236.743 166.32 236.743 168.225V194.969C236.743 196.875 238.372 198.42 240.382 198.42H428.729C430.739 198.42 432.369 196.875 432.369 194.969V168.225C432.369 166.32 430.739 164.775 428.729 164.775Z" fill="white"/>
<mask id="mask20_805_15306" style="mask-type:luminance" maskUnits="userSpaceOnUse" x="244" y="174" width="144" height="15">
<path d="M387.784 174.868H244.932V188.326H387.784V174.868Z" fill="white"/>
</mask>
<g mask="url(#mask20_805_15306)">
<path d="M385.123 174.868H247.593C246.123 174.868 244.932 175.998 244.932 177.392C244.932 178.785 246.123 179.915 247.593 179.915H385.123C386.593 179.915 387.784 178.785 387.784 177.392C387.784 175.998 386.593 174.868 385.123 174.868Z" fill="#DDE3E9"/>
<path d="M338.158 183.28H247.593C246.123 183.28 244.932 184.409 244.932 185.803C244.932 187.197 246.123 188.326 247.593 188.326H338.158C339.628 188.326 340.82 187.197 340.82 185.803C340.82 184.409 339.628 183.28 338.158 183.28Z" fill="#DDE3E9"/>
</g>
<path fill-rule="evenodd" clip-rule="evenodd" d="M415.039 187.636C418.557 187.636 421.408 184.932 421.408 181.597C421.408 178.262 418.557 175.558 415.039 175.558C411.522 175.558 408.67 178.262 408.67 181.597C408.67 184.932 411.522 187.636 415.039 187.636Z" fill="#DDE3E9"/>
<path fill-rule="evenodd" clip-rule="evenodd" d="M415.039 184.185C416.547 184.185 417.769 183.027 417.769 181.597C417.769 180.168 416.547 179.009 415.039 179.009C413.532 179.009 412.31 180.168 412.31 181.597C412.31 183.027 413.532 184.185 415.039 184.185Z" fill="#AFB9C5"/>
</g>
<mask id="mask21_805_15306" style="mask-type:luminance" maskUnits="userSpaceOnUse" x="236" y="245" width="197" height="35">
<path d="M432.369 245.868H236.743V279.513H432.369V245.868Z" fill="white"/>
</mask>
<g mask="url(#mask21_805_15306)">
<path d="M428.729 245.868H240.382C238.372 245.868 236.743 247.413 236.743 249.319V276.062C236.743 277.968 238.372 279.513 240.382 279.513H428.729C430.739 279.513 432.369 277.968 432.369 276.062V249.319C432.369 247.413 430.739 245.868 428.729 245.868Z" fill="white"/>
<mask id="mask22_805_15306" style="mask-type:luminance" maskUnits="userSpaceOnUse" x="244" y="255" width="144" height="15">
<path d="M387.784 255.962H244.932V269.42H387.784V255.962Z" fill="white"/>
</mask>
<g mask="url(#mask22_805_15306)">
<path d="M385.123 255.962H247.593C246.123 255.962 244.932 257.091 244.932 258.485C244.932 259.879 246.123 261.008 247.593 261.008H385.123C386.593 261.008 387.784 259.879 387.784 258.485C387.784 257.091 386.593 255.962 385.123 255.962Z" fill="#DDE3E9"/>
<path d="M338.158 264.373H247.593C246.123 264.373 244.932 265.503 244.932 266.896C244.932 268.29 246.123 269.42 247.593 269.42H338.158C339.628 269.42 340.82 268.29 340.82 266.896C340.82 265.503 339.628 264.373 338.158 264.373Z" fill="#DDE3E9"/>
</g>
<path fill-rule="evenodd" clip-rule="evenodd" d="M415.039 268.73C418.557 268.73 421.408 266.026 421.408 262.691C421.408 259.356 418.557 256.652 415.039 256.652C411.522 256.652 408.67 259.356 408.67 262.691C408.67 266.026 411.522 268.73 415.039 268.73Z" fill="#DDE3E9"/>
<path fill-rule="evenodd" clip-rule="evenodd" d="M415.039 265.279C416.547 265.279 417.769 264.12 417.769 262.691C417.769 261.261 416.547 260.103 415.039 260.103C413.532 260.103 412.31 261.261 412.31 262.691C412.31 264.12 413.532 265.279 415.039 265.279Z" fill="#F2F2F2"/>
</g>
<mask id="mask23_805_15306" style="mask-type:luminance" maskUnits="userSpaceOnUse" x="236" y="205" width="197" height="34">
<path d="M432.369 205.321H236.743V238.966H432.369V205.321Z" fill="white"/>
</mask>
<g mask="url(#mask23_805_15306)">
<path d="M428.729 205.321H240.382C238.372 205.321 236.743 206.866 236.743 208.772V235.516C236.743 237.421 238.372 238.966 240.382 238.966H428.729C430.739 238.966 432.369 237.421 432.369 235.516V208.772C432.369 206.866 430.739 205.321 428.729 205.321Z" fill="white"/>
<mask id="mask24_805_15306" style="mask-type:luminance" maskUnits="userSpaceOnUse" x="244" y="215" width="144" height="14">
<path d="M387.784 215.415H244.932V228.873H387.784V215.415Z" fill="white"/>
</mask>
<g mask="url(#mask24_805_15306)">
<path d="M385.123 215.415H247.593C246.123 215.415 244.932 216.545 244.932 217.938C244.932 219.332 246.123 220.462 247.593 220.462H385.123C386.593 220.462 387.784 219.332 387.784 217.938C387.784 216.545 386.593 215.415 385.123 215.415Z" fill="#DDE3E9"/>
<path d="M338.158 223.826H247.593C246.123 223.826 244.932 224.956 244.932 226.35C244.932 227.743 246.123 228.873 247.593 228.873H338.158C339.628 228.873 340.82 227.743 340.82 226.35C340.82 224.956 339.628 223.826 338.158 223.826Z" fill="#DDE3E9"/>
</g>
<path fill-rule="evenodd" clip-rule="evenodd" d="M415.039 228.183C418.557 228.183 421.408 225.479 421.408 222.144C421.408 218.809 418.557 216.105 415.039 216.105C411.522 216.105 408.67 218.809 408.67 222.144C408.67 225.479 411.522 228.183 415.039 228.183Z" fill="#DDE3E9"/>
<path fill-rule="evenodd" clip-rule="evenodd" d="M415.039 224.732C416.547 224.732 417.769 223.573 417.769 222.144C417.769 220.714 416.547 219.556 415.039 219.556C413.532 219.556 412.31 220.714 412.31 222.144C412.31 223.573 413.532 224.732 415.039 224.732Z" fill="#F2F2F2"/>
</g>
</g>
</g>
<path fill-rule="evenodd" clip-rule="evenodd" d="M366.584 178.554C363.418 182.024 359.922 184.308 357.951 184.426C353.011 184.721 347.156 169.046 348.539 161.725C349.921 154.404 367.113 146.084 372.272 158.146C374.063 162.333 373.481 166.744 371.75 170.73L384.419 191.392L369.817 195.907L366.584 178.554Z" fill="#D4A181"/>
<path fill-rule="evenodd" clip-rule="evenodd" d="M373.827 173.164C373.001 164.865 376.41 157.982 374.424 154.773C372.438 151.564 368.696 151.789 368.696 151.789C368.696 151.789 364.553 145.492 355.17 149.524C345.788 153.557 341.165 159.227 346.632 166.868C348.99 166.139 351.56 164.449 355.974 164.618C358.074 164.698 360.061 167.879 360.061 167.879L361.84 167.328C361.84 167.328 363.03 162.457 365.919 162.757C368.807 163.058 368.866 167.646 368.866 167.646L371.935 173.748L373.827 173.164Z" fill="#1B2D4C"/>
<path fill-rule="evenodd" clip-rule="evenodd" d="M422.082 227.899L383.191 307.618L354.837 374.557L347.2 375.325L391.107 231.018L422.082 227.899Z" fill="#D4A181"/>
<path fill-rule="evenodd" clip-rule="evenodd" d="M356.824 370.936C357.76 370.453 358.959 370.744 359.412 371.658C359.968 372.782 360.598 374.213 360.697 375.099C360.88 376.731 360.657 379.919 360.657 379.919C358.661 380.12 324.764 383.534 324.764 383.534C324.764 383.534 322.873 379.289 325.849 378.636C328.824 377.982 330.787 377.5 330.787 377.5L346.439 368.901C346.883 368.657 347.451 368.809 347.695 369.236L348.912 371.363C348.912 371.363 351.841 372.316 353.586 372.14C354.49 372.05 355.787 371.471 356.824 370.936Z" fill="#C5CFD6"/>
<path fill-rule="evenodd" clip-rule="evenodd" d="M363.545 363.418L348.347 360.677C348.347 360.677 354.952 332.271 365.307 297.914C375.662 263.557 388.354 231.296 388.354 231.296L429.945 227.107C429.945 227.107 416.362 267.669 399.828 301.364C383.295 335.06 363.545 363.418 363.545 363.418Z" fill="#CC9700"/>
<path fill-rule="evenodd" clip-rule="evenodd" d="M425.188 227.586C432.602 253.477 444.979 286.263 445.908 287.219C446.527 287.858 466.718 292.088 506.48 299.913L505.547 306.464C458.99 304.808 434.283 302.374 431.426 299.163C427.143 294.344 404.062 255.197 394.079 230.719L425.188 227.586Z" fill="#B28B67"/>
<path fill-rule="evenodd" clip-rule="evenodd" d="M492.347 295.756L490.592 306.331C456.615 312.636 435.37 312.691 426.857 306.496C418.345 300.301 406.612 275.124 391.662 230.962L431.322 226.969C441.732 263.316 447.394 282.228 448.308 283.706C449.223 285.183 463.902 289.2 492.347 295.756Z" fill="#FEC400"/>
<path fill-rule="evenodd" clip-rule="evenodd" d="M503.658 299.6C503.319 298.643 503.828 297.573 504.857 297.309C506.121 296.985 507.717 296.645 508.654 296.706C510.381 296.819 513.654 297.581 513.654 297.581C513.517 299.48 511.175 331.723 511.175 331.723C511.175 331.723 506.439 332.751 506.277 329.859C506.115 326.968 505.955 325.052 505.955 325.052L499.74 308.943C499.564 308.487 499.82 307.982 500.307 307.829L502.727 307.063C502.727 307.063 504.226 304.493 504.347 302.834C504.41 301.973 504.034 300.661 503.658 299.6Z" fill="#AFB9C5"/>
<path fill-rule="evenodd" clip-rule="evenodd" d="M328.594 241.524L352.663 233.534L353.777 245.048L331.821 247.029C324.348 251.578 320.447 253.243 320.118 252.027C319.841 251.002 320.528 250.319 321.16 249.69C321.653 249.2 322.114 248.743 322.059 248.182C321.935 246.901 318.189 245.936 314.595 245.164C310.999 244.392 312.494 243.206 313.574 242.72C317.807 241.729 322.814 241.331 328.594 241.524ZM466.301 240.901C462.9 238.497 426.009 204.233 426.009 204.233L413.554 210.323C413.554 210.323 457.678 244.175 459.671 245.815C462.258 247.945 462.419 252.784 462.529 256.064C462.546 256.572 462.561 257.042 462.584 257.459C464.827 257.35 465.199 255.989 465.592 254.554C466.035 252.934 466.505 251.22 469.723 251.107C470.967 251.063 472.2 251.127 473.405 251.189C477.566 251.403 481.389 251.6 484.135 247.312C484.57 246.632 484.512 244.894 482.24 244.615C476.577 243.92 467.963 242.076 466.301 240.901Z" fill="#D4A181"/>
<path fill-rule="evenodd" clip-rule="evenodd" d="M371.605 183.265L362.167 188.615C370.883 210.422 364.801 229.81 333.076 239.611L343.501 268.081C372.741 258.156 391.186 236.092 380.925 205.514C378.269 197.597 375.185 189.515 371.605 183.265Z" fill="#AFB9C5"/>
<path fill-rule="evenodd" clip-rule="evenodd" d="M461.703 236.377C436.478 205.44 407.893 185.899 375.946 177.754L375.009 178.208L374.977 178.224L374.974 178.237L361.902 188.622C370.988 205.483 373.819 219.997 376.542 233.952C377.718 239.978 378.874 245.9 380.503 251.862L420.485 232.494C424.354 238.354 428.097 244.491 431.765 250.878L461.703 236.377Z" fill="#C5CFD6"/>
<path fill-rule="evenodd" clip-rule="evenodd" d="M420.486 232.494C412.611 220.562 404.215 209.775 394.864 200.342C401.987 211.823 410.108 226.413 412.36 236.431L420.486 232.494Z" fill="black" fill-opacity="0.1"/>
<path fill-rule="evenodd" clip-rule="evenodd" d="M678.766 112.158C675.841 109.123 671.347 107.484 667.169 106.539C650.853 102.845 634.072 105.112 618.67 110.665C610.229 113.707 602.232 118.204 594.934 123.119C590.721 125.956 586.793 129.168 583.618 133.011C581.474 135.604 579.743 138.42 578.299 141.401C576.538 145.035 574.923 148.783 573.659 152.596C573.162 154.097 570.184 161.989 572.829 162.733C572.763 162.929 572.711 163.119 572.685 163.293C564.699 170.597 558.561 179.887 552.817 188.711C547.819 196.39 543.12 204.211 539.271 212.454C534.205 223.307 529.853 234.502 526.262 245.862C525.491 248.304 524.765 250.756 524.054 253.215C523.448 255.312 522.84 257.409 522.234 259.506C521.556 261.857 520.43 264.484 520.234 266.929C520.063 269.058 522.013 269.171 522.61 267.149C523.331 264.707 523.937 262.235 524.671 259.793C525.647 256.555 526.627 253.316 527.621 250.082C534.522 227.615 544.576 206.215 558.127 186.586C563.61 178.642 569.458 171.271 576.335 164.331C582.382 158.229 589.238 152.549 596.09 147.364C602.748 142.326 609.573 137.477 617.143 133.644C623.285 130.535 629.796 128.088 636.398 125.934C644.783 123.199 653.128 120.568 661.863 118.988C666.403 118.168 670.975 117.548 675.529 116.805C676.349 116.671 677.22 116.559 678.023 116.371C680.702 115.745 680.359 113.81 678.766 112.158Z" fill="#C1DEE2"/>
<path fill-rule="evenodd" clip-rule="evenodd" d="M188.185 93.4082C192.432 95.8367 196.605 97.0099 198.564 96.5311C203.476 95.3294 203.928 78.2808 200.127 71.5596C196.327 64.8383 176.789 61.9086 175.803 75.226C175.462 79.8475 177.507 83.972 180.529 87.3382L175.111 111.301H190.851L188.185 93.4082Z" fill="#B28B67"/>
<path fill-rule="evenodd" clip-rule="evenodd" d="M168.942 70.7927C168.433 70.3148 168.157 69.6324 167.917 68.9845C167.667 68.3116 167.425 67.6318 167.26 66.9313C166.929 65.532 166.927 63.9222 167.978 62.8352C168.823 61.9639 170.089 61.5731 171.258 61.4877C172.037 61.4308 172.836 61.5343 173.582 61.7672C174.323 61.9984 174.962 62.4591 175.68 62.7447C175.707 61.2358 175.979 59.6579 176.785 58.3699C177.561 57.1311 178.799 56.4358 180.208 56.252C181.654 56.0631 183.083 56.384 184.377 57.0483C184.701 57.2148 185.023 57.389 185.33 57.5866C185.588 57.7514 185.855 57.9507 186.157 58.0179C186.494 58.0921 186.66 57.9084 186.88 57.6755C187.135 57.402 187.425 57.1613 187.73 56.9482C189.082 56.0053 190.857 55.6171 192.424 56.1821C193.145 56.4427 193.848 56.8852 194.337 57.4943C194.773 58.0378 195.085 58.8996 195.687 59.2783C195.943 59.4388 196.123 59.2257 196.356 59.0687C196.705 58.8323 197.039 58.5718 197.393 58.3415C197.89 58.0179 198.428 57.7764 199.005 57.6504C199.848 57.465 201.014 57.5081 201.255 58.5571C201.346 58.9505 201.277 59.3715 201.248 59.7684C201.207 60.3136 201.165 60.8579 201.116 61.4023C201.077 61.8155 201.029 62.2141 200.947 62.6196C200.904 62.8361 200.766 63.239 200.865 63.4555C200.986 63.7264 201.55 63.572 201.791 63.5815C202.267 63.6005 202.744 63.6798 203.184 63.8722C203.524 64.0214 203.883 64.2414 204.026 64.6124C204.116 64.8401 204.092 65.0739 204.05 65.3077C204 65.589 204.057 65.7382 204.095 66.022C204.733 65.7235 206.947 65.0601 207.226 66.1463C207.318 66.5086 207.107 66.9167 206.946 67.222C206.663 67.7569 206.293 68.2461 205.914 68.7119C205.125 69.685 204.181 70.5244 203.167 71.2413C204.355 71.7434 204.666 73.2221 203.636 74.1038C203.182 74.4928 202.571 74.5791 201.997 74.555C201.787 74.5455 201.485 74.4687 201.32 74.5032C201.231 74.5222 201.136 74.5938 201.013 74.6015C200.204 74.6542 199.29 74.4695 198.5 74.2987C197.09 73.9951 195.756 73.3618 194.666 72.3973C194.387 72.1498 194.156 72.0074 193.78 72.0109C193.45 72.0143 193.127 72.0997 192.798 72.1075C191.926 72.129 191.141 71.7244 190.331 71.4553C190.282 72.4931 189.97 73.6353 189.523 74.5679C189.158 75.3288 188.397 75.4401 187.648 75.5065C185.255 75.7205 182.854 75.4815 180.459 75.4849C182.778 75.9818 185.174 76.1872 187.473 76.7729C188.512 77.0369 187.719 77.7012 187.275 78.1619C186.543 78.9211 185.999 79.8605 185.621 80.8509C184.487 79.4473 182.481 78.5225 180.705 78.9538C178.742 79.43 177.359 81.9491 178.615 83.7599C179.344 84.8107 180.66 85.217 181.755 85.6682C180.901 86.511 180.694 87.7559 180.18 88.8041C179.926 89.3208 179.57 89.9057 179.003 90.086C178.793 90.1525 178.547 90.1585 178.381 90.3207C178.177 90.5217 178.127 90.746 177.865 90.9186C176.821 91.6078 175.188 91.5552 174.262 90.6554C173.425 89.8419 173.643 88.5548 174.342 87.73C173.229 87.29 171.2 86.7233 171.643 85.0772C169.23 84.9254 163.372 81.2124 166.61 78.4992C164.833 77.5468 163.2 75.2175 164.342 73.1643C165.221 71.583 167.265 70.8764 168.942 70.7927Z" fill="#121E33"/>
<path fill-rule="evenodd" clip-rule="evenodd" d="M151.909 189.708H202.577L209.215 266.87H133.793L151.909 189.708Z" fill="#C5CFD6"/>
<path fill-rule="evenodd" clip-rule="evenodd" d="M151.909 189.708H167.492L176.819 266.87H133.793L151.909 189.708Z" fill="#AFB9C5"/>
<path fill-rule="evenodd" clip-rule="evenodd" d="M230.413 204.995C224.719 216.452 215.823 244.264 215.823 244.264L223.375 247.538C223.375 247.538 242.54 218.303 254.253 198.318C253.707 202.817 253.151 207.882 252.636 213.206C251.416 225.821 252.636 253.072 253.292 260.944C253.705 265.891 260.79 264.855 261.451 260.932C261.563 260.266 262.019 257.934 262.701 254.452C266.041 237.382 274.783 192.706 274.799 181.767C274.805 177.365 265.742 173.411 260.34 176.488C256.629 172.732 249.606 170.567 245.571 176.772C243.006 180.717 236.913 191.917 230.413 204.995Z" fill="#B28B67"/>
<path fill-rule="evenodd" clip-rule="evenodd" d="M216.365 233.967L242.288 175.699C248.499 166.221 265.912 177.628 263.794 183.125C258.986 195.607 234.532 236.015 233.099 239.733L216.365 233.967Z" fill="#385E9E"/>
<path fill-rule="evenodd" clip-rule="evenodd" d="M217.196 241.27C216.549 240.467 215.328 240.271 214.523 240.932C213.502 241.769 212.259 242.88 211.773 243.68C210.885 245.138 209.695 248.215 209.695 248.215C211.478 249.191 241.731 265.763 241.731 265.763C241.731 265.763 245.363 262.531 242.863 260.744C240.362 258.959 238.736 257.732 238.736 257.732L227.832 243.478C227.531 243.085 226.947 243.005 226.541 243.301L224.45 244.828C224.45 244.828 221.289 244.567 219.731 243.714C218.912 243.265 217.937 242.189 217.196 241.27Z" fill="#DDE3E9"/>
<path fill-rule="evenodd" clip-rule="evenodd" d="M253.962 257.297C252.977 256.909 251.816 257.318 251.467 258.273C251.025 259.482 250.533 261.033 250.533 261.957C250.533 263.64 251.125 266.869 251.125 266.869C253.183 266.869 288.116 266.869 288.116 266.869C288.116 266.869 289.558 262.347 286.451 261.986C283.345 261.626 281.289 261.335 281.289 261.335L264.336 254.164C263.868 253.966 263.319 254.173 263.124 254.622L262.118 256.937C262.118 256.937 259.242 258.21 257.444 258.21C256.499 258.21 255.087 257.742 253.962 257.297Z" fill="#DDE3E9"/>
<path fill-rule="evenodd" clip-rule="evenodd" d="M276.618 186.244C276.618 202.776 268.343 241.338 268.338 244.979L250.534 244.992C250.534 244.992 254.443 193.378 253.307 192.822C252.169 192.266 206.708 197.128 193.073 197.128C173.411 197.128 165.278 185.365 164.617 163.573H203.566C211.496 164.378 252.862 172.294 268.224 175.015C274.801 176.18 276.618 181.69 276.618 186.244Z" fill="#4472C2"/>
<path fill-rule="evenodd" clip-rule="evenodd" d="M223.466 171.204C211.011 195.816 158.577 179.197 158.577 179.197C158.577 174.933 160.36 170.657 162.232 166.166C164.241 161.352 166.351 156.289 166.477 150.729C166.709 140.499 168.725 109.505 177.139 99.0348C177.292 98.562 177.448 98.0875 177.605 97.6113L178.187 97.8719C178.278 97.783 178.37 97.6959 178.462 97.6113L196.82 100.305C196.82 108.183 202.134 115.654 206.917 122.378C208.081 124.014 209.214 125.607 210.231 127.15C211.562 129.171 213.065 131.228 214.606 133.336C222.407 144.014 231.162 155.997 223.466 171.204Z" fill="#C1DEE2"/>
<path fill-rule="evenodd" clip-rule="evenodd" d="M199.944 166.552C201.171 160.54 201.967 156.526 202.333 154.512C212.113 164.997 217.763 170.301 219.283 170.423C222.141 170.651 224.253 168.246 224.855 168.923C225.849 171.723 223.041 178.732 217.675 179.752C215.112 180.238 211.146 175.224 209.512 173.447C208.87 172.749 205.68 170.449 199.944 166.552ZM216.837 134.501C219.373 134.501 220.734 135.496 222.233 137.502C223.732 139.509 225.15 148.971 222.744 148.971C220.337 148.971 210.254 145.313 210.254 142.854C210.254 140.395 217.134 139.354 217.134 137.502C217.134 135.651 214.302 134.501 216.837 134.501Z" fill="#B28B67"/>
<path fill-rule="evenodd" clip-rule="evenodd" d="M174.168 109.259C167.73 134.73 170.353 156.212 194.824 175.699C194.536 176.677 194.363 177.262 194.363 177.262C165.64 158.215 165.626 135.132 174.168 109.259Z" fill="black" fill-opacity="0.2"/>
</svg>
